<svg width="50" height="50" viewBox="0 0 50 50" fill="none" xmlns="http://www.w3.org/2000/svg">
<circle cx="25" cy="25" r="25" fill="#BFFFBF"/>
<g clip-path="url(#clip0_8_43)">
<path d="M19.6621 11.4415C19.2109 10.3517 18.0215 9.77158 16.8848 10.0821L11.7285 11.4884C10.709 11.7696 10 12.6954 10 13.7501C10 28.2462 21.7539 40.0001 36.25 40.0001C37.3047 40.0001 38.2305 39.2911 38.5117 38.2716L39.918 33.1153C40.2285 31.9786 39.6484 30.7892 38.5586 30.338L32.9336 27.9942C31.9785 27.5958 30.8711 27.8712 30.2207 28.6739L27.8535 31.5626C23.7285 29.6114 20.3887 26.2716 18.4375 22.1466L21.3262 19.7853C22.1289 19.129 22.4043 18.0274 22.0059 17.0724L19.6621 11.4474V11.4415Z" fill="#4BAF4F"/>
</g>
<defs>
<clipPath id="clip0_8_43">
<rect width="30" height="30" fill="white" transform="translate(10 10)"/>
</clipPath>
</defs>
</svg>
