<svg width="30" height="30" viewBox="0 0 30 30" fill="none" xmlns="http://www.w3.org/2000/svg">
<circle cx="15" cy="15" r="15" fill="#E9EBED"/>
<path d="M6.40401 14.4628C6.10687 14.7599 6.10687 15.2425 6.40401 15.5396L10.9682 20.1038C11.2653 20.401 11.7479 20.401 12.0451 20.1038C12.3422 19.8067 12.3422 19.3241 12.0451 19.0269L8.01812 15L12.0427 10.9731C12.3398 10.6759 12.3398 10.1933 12.0427 9.8962C11.7455 9.59905 11.263 9.59905 10.9658 9.8962L6.40164 14.4604L6.40401 14.4628Z" fill="#2C3E50"/>
<g clip-path="url(#clip0_4_2)">
<path d="M23.572 14.4628C23.8692 14.7599 23.8692 15.2425 23.572 15.5396L19.0079 20.1038C18.7107 20.401 18.2281 20.401 17.931 20.1038C17.6338 19.8067 17.6338 19.3241 17.931 19.0269L21.9579 15L17.9334 10.9731C17.6362 10.6759 17.6362 10.1933 17.9334 9.8962C18.2305 9.59905 18.7131 9.59905 19.0102 9.8962L23.5744 14.4604L23.572 14.4628Z" fill="#2C3E50"/>
</g>
<defs>
<clipPath id="clip0_4_2">
<rect width="7.60697" height="12.1712" fill="white" transform="translate(16.1885 8.91431)"/>
</clipPath>
</defs>
</svg>
