<svg width="50" height="50" viewBox="0 0 50 50" fill="none" xmlns="http://www.w3.org/2000/svg">
<circle cx="25" cy="25" r="25" fill="#BFFFBF"/>
<path d="M10.6737 24.1044C10.1784 24.5997 10.1784 25.404 10.6737 25.8992L18.2807 33.5062C18.7759 34.0014 19.5802 34.0014 20.0754 33.5062C20.5707 33.0109 20.5707 32.2067 20.0754 31.7114L13.3639 24.9998L20.0715 18.2883C20.5667 17.793 20.5667 16.9888 20.0715 16.4935C19.5762 15.9983 18.7719 15.9983 18.2767 16.4935L10.6697 24.1005L10.6737 24.1044Z" fill="#4BAF4F"/>
<g clip-path="url(#clip0_5_9)">
<path d="M39.2868 24.1044C39.7821 24.5997 39.7821 25.404 39.2868 25.8992L31.6799 33.5062C31.1846 34.0014 30.3804 34.0014 29.8851 33.5062C29.3899 33.0109 29.3899 32.2067 29.8851 31.7114L36.5967 24.9998L29.8891 18.2883C29.3938 17.793 29.3938 16.9888 29.8891 16.4935C30.3843 15.9983 31.1886 15.9983 31.6838 16.4935L39.2908 24.1005L39.2868 24.1044Z" fill="#4BAF4F"/>
</g>
<defs>
<clipPath id="clip0_5_9">
<rect width="12.6783" height="20.2853" fill="white" transform="translate(26.981 14.8572)"/>
</clipPath>
</defs>
</svg>
