<svg width="50" height="50" viewBox="0 0 50 50" fill="none" xmlns="http://www.w3.org/2000/svg">
<circle cx="25" cy="25" r="25" fill="#BFFFBF"/>
<path d="M26.8516 42.1353C30.8594 37.7453 40 27.1054 40 21.129C40 13.8807 33.2812 8 25 8C16.7188 8 10 13.8807 10 21.129C10 27.1054 19.1406 37.7453 23.1484 42.1353C24.1094 43.1816 25.8906 43.1816 26.8516 42.1353ZM25 16.7527C26.3261 16.7527 27.5979 17.2137 28.5355 18.0344C29.4732 18.8552 30 19.9683 30 21.129C30 22.2896 29.4732 23.4028 28.5355 24.2235C27.5979 25.0442 26.3261 25.5053 25 25.5053C23.6739 25.5053 22.4021 25.0442 21.4645 24.2235C20.5268 23.4028 20 22.2896 20 21.129C20 19.9683 20.5268 18.8552 21.4645 18.0344C22.4021 17.2137 23.6739 16.7527 25 16.7527Z" fill="#4BAF4F"/>
</svg>
