<svg width="50" height="50" viewBox="0 0 50 50" fill="none" xmlns="http://www.w3.org/2000/svg">
<circle cx="25" cy="25" r="25" fill="#BFFFBF"/>
<path d="M13.75 16.5625C13.2344 16.5625 12.8125 16.9844 12.8125 17.5V18.7949L22.9199 27.0918C24.1328 28.0879 25.873 28.0879 27.0859 27.0918L37.1875 18.7949V17.5C37.1875 16.9844 36.7656 16.5625 36.25 16.5625H13.75ZM12.8125 22.4336V32.5C12.8125 33.0156 13.2344 33.4375 13.75 33.4375H36.25C36.7656 33.4375 37.1875 33.0156 37.1875 32.5V22.4336L28.8672 29.2656C26.6172 31.1113 23.377 31.1113 21.1328 29.2656L12.8125 22.4336ZM10 17.5C10 15.4316 11.6816 13.75 13.75 13.75H36.25C38.3184 13.75 40 15.4316 40 17.5V32.5C40 34.5684 38.3184 36.25 36.25 36.25H13.75C11.6816 36.25 10 34.5684 10 32.5V17.5Z" fill="#4BAF4F"/>
</svg>
