<svg width="50" height="50" viewBox="0 0 50 50" fill="none" xmlns="http://www.w3.org/2000/svg">
<circle cx="25" cy="25" r="25" fill="#BFFFBF"/>
<g clip-path="url(#clip0_5_22)">
<path d="M38.9272 31.5841L35.6577 28.3204L28.3218 35.6563L31.5854 38.92C32.8687 40.2032 34.9429 40.2032 36.2261 38.92L38.9272 36.2247C40.2104 34.9415 40.2104 32.8673 38.9272 31.5841ZM34.4565 26.8731L34.2925 26.3341L31.7612 17.8907C31.4097 16.7247 30.519 15.7989 29.3589 15.4122L13.8784 10.2208C13.2163 9.99813 12.478 10.1622 11.98 10.6485L20.9741 19.6485C21.3433 19.4727 21.7534 19.3731 22.187 19.3731C23.7397 19.3731 24.9995 20.6329 24.9995 22.1856C24.9995 23.7384 23.7397 24.9981 22.187 24.9981C20.6343 24.9981 19.3745 23.7384 19.3745 22.1856C19.3745 21.752 19.4741 21.3419 19.6499 20.9727L10.6499 11.9727C10.1636 12.4766 9.99365 13.2091 10.2222 13.8712L15.4136 29.3575C15.8003 30.5118 16.7261 31.4083 17.8921 31.7599L26.3354 34.2911L26.8745 34.4493L34.4565 26.8731Z" fill="#4BAF4F"/>
</g>
<defs>
<clipPath id="clip0_5_22">
<rect width="30" height="30" fill="white" transform="matrix(0 1 -1 0 39.9995 9.99805)"/>
</clipPath>
</defs>
</svg>
