<svg width="50" height="50" viewBox="0 0 50 50" fill="none" xmlns="http://www.w3.org/2000/svg">
<circle cx="25" cy="25" r="25" fill="#EDF7ED"/>
<g clip-path="url(#clip0_5_33)">
<path d="M40 14.6875V17.5C40 20.0898 33.2835 22.1875 25 22.1875C16.7165 22.1875 10 20.0898 10 17.5V14.6875C10 12.0977 16.7165 10 25 10C33.2835 10 40 12.0977 40 14.6875ZM36.3304 22.5801C37.7232 22.1465 39.0022 21.5898 40 20.9043V26.875C40 29.4648 33.2835 31.5625 25 31.5625C16.7165 31.5625 10 29.4648 10 26.875V20.9043C10.9978 21.5957 12.2768 22.1465 13.6696 22.5801C16.6763 23.5176 20.6808 24.0625 25 24.0625C29.3192 24.0625 33.3237 23.5176 36.3304 22.5801ZM10 30.2793C10.9978 30.9707 12.2768 31.5215 13.6696 31.9551C16.6763 32.8926 20.6808 33.4375 25 33.4375C29.3192 33.4375 33.3237 32.8926 36.3304 31.9551C37.7232 31.5215 39.0022 30.9648 40 30.2793V35.3125C40 37.9023 33.2835 40 25 40C16.7165 40 10 37.9023 10 35.3125V30.2793Z" fill="#4BAF4F"/>
</g>
<defs>
<clipPath id="clip0_5_33">
<rect width="30" height="30" fill="white" transform="translate(10 10)"/>
</clipPath>
</defs>
</svg>
