<svg width="107" height="69" viewBox="0 0 107 69" fill="none" xmlns="http://www.w3.org/2000/svg">
<path d="M42.0621 12C41.3288 13.7333 40.3954 16.2333 39.2621 19.5C36.3288 28.1 34.0954 37.6 32.5621 48C32.3621 49.7333 32.1621 51.6 31.9621 53.6C31.7621 55.6 31.6621 57.3 31.6621 58.7C31.6621 59.5 31.8954 60.2667 32.3621 61C32.8954 61.7333 33.1621 62.2 33.1621 62.4C33.1621 62.8 32.7288 63.5333 31.8621 64.6C30.9954 65.6 30.0288 66.5333 28.9621 67.4C27.8954 68.2667 27.0288 68.7 26.3621 68.7C25.0288 68.7 24.3621 68.1333 24.3621 67C24.3621 65.5333 25.1954 60.5333 26.8621 52C28.5288 43.4 29.9288 36.8 31.0621 32.2C29.4621 34 28.0288 35.4 26.7621 36.4C25.4954 37.4 23.9288 37.9 22.0621 37.9C19.3954 37.9 16.6954 35.8 13.9621 31.6C11.2288 27.3333 8.49544 22.2333 5.76211 16.3L4.76211 14.3C3.82878 12.3667 2.89544 10.7 1.96211 9.3C1.02878 7.9 0.562109 7.1 0.562109 6.9C0.562109 6.56667 0.795443 6.33333 1.26211 6.2C1.79544 6 2.36211 5.9 2.96211 5.9C5.16211 5.9 7.12878 8 8.86211 12.2C11.2621 17.9333 13.6288 22.9 15.9621 27.1C18.3621 31.2333 20.8288 33.3 23.3621 33.3C25.0288 33.3 26.4954 32.7333 27.7621 31.6C29.0288 30.4667 30.0621 29.1333 30.8621 27.6C31.5954 26.2 32.4621 24.2 33.4621 21.6C34.5288 19 35.3288 16.8667 35.8621 15.2C37.9954 8.8 39.1621 5.1 39.3621 4.1C39.6954 2.7 39.9954 1.73333 40.2621 1.19999C40.5288 0.599995 40.9621 0.299994 41.5621 0.299994C42.2954 0.299994 42.9954 0.566662 43.6621 1.1C44.3288 1.56666 44.6621 2.13333 44.6621 2.8C44.6621 3.93333 44.4621 5.13333 44.0621 6.4C43.6621 7.66667 42.9954 9.53333 42.0621 12ZM102.295 67.5C101.828 67.5 98.6949 63.9333 92.8949 56.8C87.1616 49.6 82.4283 43.4667 78.6949 38.4C78.1616 37.6667 76.4616 35.2333 73.5949 31.1C69.3949 24.9667 66.7949 21.2667 65.7949 20L65.5949 27.7L65.4949 35.2C65.4949 39.9333 65.4283 45.0667 65.2949 50.6C65.2283 56.1333 65.1283 60.5333 64.9949 63.8C64.9283 64.6 64.5616 65.3333 63.8949 66C63.2949 66.6667 62.6616 67 61.9949 67C61.2616 67 60.7283 66.8 60.3949 66.4C60.1283 65.9333 59.9949 65.0667 59.9949 63.8C59.9949 63 60.1283 60.5333 60.3949 56.4C60.9949 48.7333 61.2949 42.3 61.2949 37.1C61.2949 32.9667 61.3616 29.0667 61.4949 25.4C61.6283 21.6667 61.6949 19.3667 61.6949 18.5L61.7949 15.6V15.3C61.7949 14.5667 61.8949 14 62.0949 13.6C62.3616 13.1333 62.8616 12.9 63.5949 12.9H64.0949C64.8283 12.9 66.2616 14.2333 68.3949 16.9C70.5949 19.5 73.3616 23.0667 76.6949 27.6C77.4283 28.5333 78.1283 29.4667 78.7949 30.4C79.4616 31.2667 80.0949 32.1 80.6949 32.9C84.4949 37.7667 86.4949 40.3333 86.6949 40.6C96.1616 52.6667 101.328 59.5333 102.195 61.2C102.062 60.6667 101.828 59.4333 101.495 57.5C101.162 55.5667 100.828 53.0333 100.495 49.9C100.228 46.7667 100.095 43.5333 100.095 40.2C100.095 34.2667 99.5283 26.4333 98.3949 16.7C98.0616 13.5 97.8949 11.5333 97.8949 10.8C97.8949 8.26666 99.3283 7 102.195 7C102.862 7 103.362 7.7 103.695 9.09999C104.028 10.4333 104.262 13.3 104.395 17.7C104.528 22.1 104.595 29.1333 104.595 38.8C104.595 41.8667 104.695 44.8667 104.895 47.8C105.162 50.7333 105.395 53.3333 105.595 55.6C105.928 58.7333 106.095 61.1 106.095 62.7L106.195 66.3C106.195 67.1 104.895 67.5 102.295 67.5Z" fill="#6C757D"/>
</svg>
