<svg width="667" height="378" viewBox="0 0 667 378" fill="none" xmlns="http://www.w3.org/2000/svg">
<path d="M555.705 344.387H599.868V344.053H555.705V344.387Z" fill="#EEEEEE"/>
<path d="M430.035 347.671H441.626V348.004H430.035V347.671Z" fill="#EEEEEE"/>
<path d="M528.781 332.004H554.371V331.671H528.781V332.004Z" fill="#EEEEEE"/>
<path d="M69.9453 334.246H127.536V333.913H69.9453V334.246Z" fill="#EEEEEE"/>
<path d="M139.407 333.913H147.851V334.246H139.407V333.913Z" fill="#EEEEEE"/>
<path d="M175.294 339.542H300.195V339.875H175.294V339.542Z" fill="#EEEEEE"/>
<path d="M58.6187 0.232462C54.6012 0.232462 51.3327 2.50869 51.3327 5.30748V257.692C51.3327 260.491 54.6012 262.768 58.6187 262.768H316.381C320.398 262.768 323.665 260.491 323.665 257.692V5.30748C323.665 2.50869 320.398 0.232462 316.381 0.232462H58.6187ZM316.381 263H58.6187C54.4176 263 50.999 260.619 50.999 257.692V5.30748C50.999 2.38038 54.4176 3.87098e-06 58.6187 3.87098e-06H316.381C320.58 3.87098e-06 323.999 2.38038 323.999 5.30748V257.692C323.999 260.619 320.58 263 316.381 263Z" fill="#EEEEEE"/>
<path d="M346.617 0.232462C342.601 0.232462 339.333 2.50869 339.333 5.30748V257.692C339.333 260.491 342.601 262.768 346.617 262.768H604.38C608.396 262.768 611.665 260.491 611.665 257.692V5.30748C611.665 2.50869 608.396 0.232462 604.38 0.232462H346.617ZM604.38 263H346.617C342.418 263 338.999 260.619 338.999 257.692V5.30748C338.999 2.38038 342.418 3.87098e-06 346.617 3.87098e-06H604.38C608.58 3.87098e-06 611.999 2.38038 611.999 5.30748V257.692C611.999 260.619 608.58 263 604.38 263Z" fill="#EEEEEE"/>
<path d="M0 322.926H666.667V322.592H0V322.926Z" fill="#EEEEEE"/>
<path d="M288.036 323.855H286.423C285.548 323.855 284.842 323.148 284.842 322.274V253.613H289.618V322.274C289.618 323.148 288.908 323.855 288.036 323.855Z" fill="#F4F4F4"/>
<path d="M391.29 253.611H432.686V247.368H391.29V253.611Z" fill="#E9E9E8"/>
<path d="M317.624 323.855H316.011C315.138 323.855 314.43 323.148 314.43 322.274V253.613H319.206V322.274C319.206 323.148 318.498 323.855 317.624 323.855Z" fill="#E9E9E8"/>
<path d="M428.345 323.855H426.732C425.858 323.855 425.15 323.148 425.15 322.274V253.613H429.926V322.274C429.926 323.148 429.218 323.855 428.345 323.855Z" fill="#E9E9E8"/>
<path d="M282.081 253.611H403.098V247.368H282.081V253.611Z" fill="#F8F8F9"/>
<path d="M398.757 323.855H397.143C396.269 323.855 395.562 323.148 395.562 322.274V253.613H400.337V322.274C400.337 323.148 399.629 323.855 398.757 323.855Z" fill="#F4F4F4"/>
<path d="M423.719 247.369H412.739V246.392C412.739 244.478 414.346 242.954 416.259 243.057L420.559 243.29C422.331 243.385 423.719 244.85 423.719 246.625V247.369Z" fill="#F4F4F4"/>
<path d="M394.077 224.671C394.035 223.807 393.322 223.127 392.455 223.127H381.361C380.494 223.127 379.781 223.807 379.739 224.671L382.373 247.795H398.935L394.077 224.671Z" fill="#E3E3E2"/>
<path d="M424.212 189.119H420.078L415.432 232.791H419.566C420.25 232.791 420.865 232.236 420.938 231.552L425.321 190.36C425.394 189.675 424.897 189.119 424.212 189.119Z" fill="#E3E3E2"/>
<path d="M417.816 232.793H355.852C355.168 232.793 354.671 232.237 354.744 231.553L359.127 190.361C359.2 189.676 359.814 189.12 360.5 189.12H422.463C423.148 189.12 423.644 189.676 423.571 190.361L419.19 231.553C419.116 232.237 418.502 232.793 417.816 232.793Z" fill="#EEEEEE"/>
<path d="M416.66 228.76H358.228C357.63 228.76 357.197 228.276 357.261 227.676L361.085 191.738C361.148 191.141 361.684 190.657 362.283 190.657H420.715C421.312 190.657 421.745 191.141 421.681 191.738L417.857 227.676C417.793 228.276 417.258 228.76 416.66 228.76Z" fill="#FCFDFD"/>
<path d="M399.557 245.999H379.188C378.692 245.999 378.289 246.4 378.289 246.897C378.289 247.392 378.692 247.795 379.188 247.795H399.557C400.053 247.795 400.454 247.392 400.454 246.897C400.454 246.4 400.053 245.999 399.557 245.999Z" fill="#E3E3E2"/>
<path d="M358.858 247.369H393.409V244.796H358.858V247.369Z" fill="#EEEEEE"/>
<path d="M379.448 220.236L369.921 210.711L379.448 201.184L388.974 210.711L379.448 220.236Z" fill="#F4F4F4"/>
<path d="M388.271 219.684L393.483 214.47L398.697 219.684H388.271Z" fill="#EEEEEE"/>
<path d="M408.754 205.619C408.754 209.177 405.87 212.061 402.312 212.061C398.755 212.061 395.871 209.177 395.871 205.619C395.871 202.062 398.755 199.178 402.312 199.178C405.87 199.178 408.754 202.062 408.754 205.619Z" fill="#E9E9E8"/>
<path d="M342.903 324.117H292.049V256.448H342.903V324.117Z" fill="#F8F8F9"/>
<path d="M352.606 324.117H342.903V256.448H352.606V324.117Z" fill="#E9E9E8"/>
<path d="M339.603 277.902H295.611V261.47H339.603V277.902Z" fill="#FCFDFD"/>
<path d="M339.603 296.131H295.611V279.698H339.603V296.131Z" fill="#FCFDFD"/>
<path d="M339.603 314.359H295.611V297.928H339.603V314.359Z" fill="#FCFDFD"/>
<path d="M319.44 269.686C319.44 270.7 318.62 271.52 317.608 271.52C316.594 271.52 315.774 270.7 315.774 269.686C315.774 268.674 316.594 267.854 317.608 267.854C318.62 267.854 319.44 268.674 319.44 269.686Z" fill="#EEEEEE"/>
<path d="M319.44 287.916C319.44 288.928 318.62 289.748 317.608 289.748C316.594 289.748 315.774 288.928 315.774 287.916C315.774 286.903 316.594 286.083 317.608 286.083C318.62 286.083 319.44 286.903 319.44 287.916Z" fill="#EEEEEE"/>
<path d="M319.44 306.142C319.44 307.154 318.62 307.975 317.608 307.975C316.594 307.975 315.774 307.154 315.774 306.142C315.774 305.13 316.594 304.309 317.608 304.309C318.62 304.309 319.44 305.13 319.44 306.142Z" fill="#EEEEEE"/>
<path d="M145.709 320.15H229.281V240.677H145.709V320.15Z" fill="#F4F4F4"/>
<path d="M229.281 320.15H240.674V240.677H229.281V320.15Z" fill="#E9E9E8"/>
<path d="M149.893 265.875H225.405V246.575H149.893V265.875Z" fill="#FCFDFD"/>
<path d="M149.893 287.281H225.405V267.982H149.893V287.281Z" fill="#FCFDFD"/>
<path d="M149.893 308.689H225.405V289.389H149.893V308.689Z" fill="#FCFDFD"/>
<path d="M225.405 324.117H150.519L149.893 320.144H225.405V324.117Z" fill="#E9E9E8"/>
<path d="M236.073 324.117H225.405V320.144H236.701L236.073 324.117Z" fill="#E3E3E2"/>
<path d="M180.758 246.575L180.983 249.148C181.058 249.996 181.768 250.646 182.62 250.646H192.368C193.22 250.646 193.931 249.996 194.006 249.148L194.231 246.575H180.758Z" fill="#EEEEEE"/>
<path d="M180.758 267.983L180.983 270.555C181.058 271.403 181.768 272.055 182.62 272.055H192.37C193.22 272.055 193.931 271.403 194.006 270.555L194.232 267.983H180.758Z" fill="#EEEEEE"/>
<path d="M180.758 289.389L180.983 291.963C181.058 292.812 181.768 293.463 182.62 293.463H192.37C193.22 293.463 193.931 292.812 194.006 291.963L194.232 289.389H180.758Z" fill="#EEEEEE"/>
<path d="M514.407 223.401C509.565 221.905 506.377 220.92 502.591 219.749C501.729 219.482 501.958 218.202 502.861 218.249C507.275 218.482 510.891 218.673 516.477 218.972C513.261 213.378 511.362 209.888 509.195 205.508C508.798 204.706 509.862 203.988 510.457 204.658C513.365 207.928 515.797 210.584 519.694 214.768C520.625 209.352 521.702 204.37 523.051 199.361C523.294 198.458 524.641 198.693 524.558 199.624C524.198 203.688 524.066 207.788 524.165 211.749C524.346 211.813 524.354 211.816 524.535 211.881C527.809 208.15 531.243 204.564 534.822 201.129C535.511 200.468 536.541 201.417 535.949 202.166C532.475 206.57 529.261 211.177 526.335 215.966C531.009 214.204 535.709 212.493 540.426 210.837C541.306 210.529 541.871 211.77 541.059 212.23C536.166 215.002 531.327 217.841 526.494 220.78C531.593 222.404 534.918 223.462 538.946 224.746C539.807 225.02 539.57 226.298 538.667 226.244C534.539 225.994 531.111 225.786 525.871 225.472C528.401 228.434 530.159 230.465 532.205 232.764C532.801 233.436 531.955 234.41 531.206 233.913C528.634 232.206 526.37 230.692 523.078 228.48C523.411 231.113 523.702 233.148 524.05 235.145C524.209 236.058 522.917 236.42 522.579 235.556C521.725 233.368 520.942 231.19 519.949 228.302C516.23 246.097 517.194 263.345 520.789 281.033C519.007 280.71 518.115 280.55 516.333 280.228C513.729 262.093 514.402 245.855 518.422 228.028C516.189 230.33 514.547 232.072 512.982 233.822C512.363 234.516 511.273 233.712 511.753 232.916C512.803 231.172 513.947 229.397 515.473 227.108C511.494 227.978 508.767 228.582 505.765 229.258C504.879 229.457 504.442 228.226 505.254 227.822C508.053 226.429 510.622 225.192 514.407 223.401Z" fill="#EEEEEE"/>
<path d="M508.122 229.548C511.792 227.603 514.433 226.202 517.196 224.738C518.265 224.17 517.644 222.543 516.466 222.831C513.021 223.676 509.814 224.463 505.261 225.582C507.088 220.322 508.242 216.782 509.366 212.886C509.7 211.732 508.118 211.043 507.497 212.071C505.654 215.124 503.901 217.951 501.316 222.052C499.749 217.864 498.141 213.975 496.377 210.155C495.854 209.02 494.146 209.636 494.454 210.846C495.228 213.875 495.869 216.926 496.361 219.922C496.194 220.018 496.188 220.023 496.021 220.119C493.088 217.83 490.08 215.636 487.006 213.54C485.948 212.82 484.784 214.279 485.729 215.143C488.966 218.106 492.068 221.218 495.016 224.47C491.045 223.776 487.064 223.119 483.077 222.5C481.84 222.307 481.406 224.076 482.59 224.487C486.992 226.008 491.37 227.584 495.758 229.228C491.846 231.346 489.068 232.85 486.105 234.452C485.04 235.03 485.673 236.652 486.846 236.355C490.029 235.548 493.036 234.787 497.245 233.722C495.738 236.36 494.586 238.355 493.402 240.358C492.792 241.391 494.149 242.454 495.008 241.614C496.682 239.972 498.349 238.331 500.552 236.156C500.649 237.72 500.721 239.079 500.77 240.347C500.818 241.583 502.608 241.694 502.812 240.474C503.066 238.95 503.314 237.323 503.593 235.398C510.568 252.184 512.84 269.31 512.609 287.357C514.3 286.71 515.145 286.384 516.836 285.735C516.01 267.433 512.317 251.607 505.04 234.842C506.644 235.97 507.989 236.932 509.218 237.835C510.228 238.576 511.437 237.216 510.578 236.304C509.742 235.418 508.826 234.468 507.768 233.386C510.868 233.474 513.226 233.544 515.533 233.616C516.75 233.656 517.012 231.922 515.838 231.599C513.562 230.972 511.221 230.352 508.122 229.548Z" fill="#F4F4F4"/>
<path d="M524.148 239.298C521.405 237.844 519.449 236.808 517.38 235.71C516.622 235.309 517.061 234.157 517.894 234.361C520.472 234.993 522.84 235.573 526.233 236.408C524.877 232.501 524.029 229.898 523.196 226.997C522.96 226.177 524.078 225.689 524.518 226.418C525.893 228.698 527.185 230.781 529.109 233.833C530.28 230.705 531.484 227.804 532.806 224.952C533.178 224.152 534.389 224.588 534.168 225.444C533.574 227.74 533.086 230.056 532.713 232.329L532.93 232.456C535.158 230.716 537.445 229.052 539.784 227.464C540.534 226.956 541.35 227.997 540.68 228.608C538.244 230.825 535.913 233.156 533.702 235.597C536.674 235.077 539.656 234.586 542.641 234.124C543.514 233.989 543.824 235.241 542.988 235.53C539.704 236.664 536.434 237.838 533.161 239.065C536.078 240.645 538.133 241.757 540.35 242.957C541.105 243.365 540.656 244.513 539.825 244.302C537.442 243.7 535.22 243.137 532.077 242.341C533.21 244.326 534.068 245.811 534.961 247.318C535.394 248.05 534.434 248.805 533.825 248.21C532.564 246.974 531.324 245.753 529.666 244.114C529.59 245.344 529.536 246.396 529.5 247.381C529.466 248.256 528.201 248.337 528.054 247.475C527.856 246.303 527.665 245.056 527.449 243.562C522.365 255.799 520.709 268.284 520.877 281.439C519.645 280.968 519.028 280.73 517.796 280.258C518.397 266.916 521.09 255.38 526.394 243.158C525.142 244.038 524.105 244.781 523.157 245.481C522.445 246.005 521.589 245.044 522.193 244.397C522.846 243.701 523.564 242.956 524.406 242.097C522.065 242.164 520.304 242.216 518.564 242.272C517.701 242.298 517.516 241.07 518.346 240.841C520.062 240.369 521.809 239.906 524.148 239.298Z" fill="#F8F8F9"/>
<path d="M525.909 324.117H502.853C501.241 324.117 499.908 322.864 499.809 321.254L497.365 281.489C497.257 279.734 498.651 278.252 500.409 278.252H528.353C530.112 278.252 531.505 279.734 531.399 281.489L528.955 321.254C528.855 322.864 527.521 324.117 525.909 324.117Z" fill="#EEEEEE"/>
<path d="M531.107 280.619H497.368C495.819 280.619 494.516 279.458 494.339 277.919C494.128 276.109 495.544 274.518 497.368 274.518H531.107C532.931 274.518 534.347 276.109 534.138 277.919C533.96 279.458 532.656 280.619 531.107 280.619Z" fill="#F8F8F9"/>
<path d="M585.422 362.583C585.422 370.921 469.68 377.68 326.904 377.68C184.128 377.68 68.3848 370.921 68.3848 362.583C68.3848 354.245 184.128 347.485 326.904 347.485C469.68 347.485 585.422 354.245 585.422 362.583Z" fill="#F8F8F9"/>
<path d="M525.787 23.625L232.702 23.6836L230.494 25.6836L229.277 62.8277L228.777 68.541L227.591 82.0943L226.646 92.893L226.118 98.9343H157.566H154.765H151.231L149.006 100.934L138.65 242.738C138.327 246.437 141.063 249.436 144.762 249.436H213.315L213.87 243.102H213.505L214.846 227.768L215.791 216.969L216.533 208.501L217.477 197.701L218.233 189.054L219.163 178.434L219.535 174.185H294.785L293.483 189.054L293.469 189.232L288.755 243.102L288.558 245.368L288.49 246.13L288.202 249.436L361.225 251.453L363.441 249.734L365.347 227.768L366.291 216.969L368.734 189.054L369.663 178.434L370.035 174.185H445.286L447.341 150.697H447.342L448.094 142.089L449.027 131.429L449.971 120.63L451.87 98.9343H520.787L524.913 100.934L527.119 98.9343L532.918 31.4076C533.242 27.7103 529.962 23.625 525.787 23.625Z" fill="#4870C0"/>
<path d="M439.484 251.438H508.039C511.738 251.438 514.998 248.439 515.32 244.74L521.135 174.669L445.352 174.409L443.08 176.187L439.484 251.438Z" fill="#4870C0"/>
<path d="M522.46 100.935L528.144 35.979H229.592L223.91 100.935H152.556L139.678 248.131H211.032L217.326 176.186H292.576L286.283 248.131H361.532L367.827 176.186H443.08L436.783 248.131H509.583L515.878 176.186H443.08L449.662 100.935H522.46Z" fill="#4870C0"/>
<path d="M361.533 248.131L361.798 245.103H286.547L286.283 248.131L287.889 229.768H298.685C300.181 229.768 301.502 228.555 301.633 227.056L302.103 221.68C302.11 221.599 302.114 221.518 302.114 221.438C302.111 220.054 301.045 218.97 299.629 218.97H288.834L288.537 222.364L291.261 191.232H325.437C326.934 191.232 328.254 190.019 328.385 188.522L328.855 183.146C328.862 183.063 328.866 182.983 328.866 182.903C328.865 181.519 327.797 180.435 326.382 180.435H292.205L292.577 176.186H219.359H217.326L216.954 180.435H211.902C212.993 174.776 212.007 166.4 206.259 163.943C205.162 163.474 204.019 163.251 202.897 163.251C199.567 163.251 196.401 165.203 195.011 168.459C194.487 169.682 194.258 171.011 194.338 172.339C194.511 175.978 194.582 178.403 195.221 180.435H168.441C166.943 180.435 165.623 181.648 165.493 183.146L165.022 188.522C165.015 188.603 165.011 188.684 165.011 188.764C165.014 190.148 166.081 191.232 167.495 191.232H188.954C185.287 192.055 178.037 194.34 176.819 199.702H166.755C165.258 199.702 163.938 200.915 163.807 202.412L163.337 207.79C163.33 207.872 163.326 207.952 163.326 208.032C163.327 209.415 164.394 210.5 165.81 210.5H177.179C177.834 213.64 178.885 216.683 180.198 218.97H165.069C163.571 218.97 162.253 220.183 162.121 221.68L161.65 227.056C161.643 227.139 161.641 227.22 161.641 227.3C161.642 228.683 162.709 229.768 164.125 229.768H182.579C182.633 236.743 182.781 242.116 182.882 245.103H147.179C144.863 245.103 143.118 243.328 143.115 241.066C143.115 240.934 143.121 240.802 143.133 240.668L155.358 100.935H152.557H223.91L229.593 35.979L228.847 44.4977H519.082C521.398 44.4977 523.142 46.271 523.146 48.5337C523.146 48.6643 523.141 48.7977 523.129 48.931L519.239 93.383L463.614 92.931L460.67 94.7137L460.069 100.935H451.695H449.662L443.255 174.186L443.081 176.186H515.878H511.995L506.354 240.668C506.139 243.116 503.981 245.103 501.531 245.103H456.866C455.405 241.391 453.919 238.76 452.754 237.012L452.977 234.458C452.978 234.458 452.978 234.456 452.978 234.456C452.978 234.455 452.978 234.454 452.977 234.452L457.483 182.626L442.522 182.562L443.081 176.186H439.946C439.857 175.87 439.747 175.559 439.618 175.255C438.385 172.366 435.574 170.634 432.619 170.634C431.623 170.634 430.61 170.831 429.637 171.247C427.501 172.16 426.106 173.994 425.277 176.186H369.861H367.827L361.533 248.131ZM168.383 150.23C168.385 151.614 169.451 152.698 170.867 152.698H445.133L446.078 141.899H171.811C170.315 141.899 168.995 143.112 168.865 144.61L168.394 149.987C168.386 150.068 168.383 150.15 168.383 150.23ZM170.069 130.962C170.07 132.344 171.138 133.43 172.553 133.43H323.994C325.491 133.43 326.811 132.216 326.942 130.718L327.413 125.342C327.419 125.26 327.423 125.179 327.423 125.099C327.421 123.715 326.354 122.631 324.938 122.631H173.498C172.001 122.631 170.681 123.844 170.55 125.342L170.079 130.718C170.071 130.8 170.069 130.882 170.069 130.962ZM333.325 111.694C333.327 113.078 334.394 114.162 335.809 114.162H408.819C410.315 114.162 411.635 112.948 411.766 111.451L412.237 106.074C412.245 105.992 412.247 105.911 412.247 105.831C412.246 104.448 411.179 103.363 409.763 103.363H336.754C335.257 103.363 333.937 104.578 333.806 106.074L333.335 111.451C333.329 111.532 333.325 111.614 333.325 111.694ZM171.754 111.694C171.757 113.078 172.823 114.162 174.238 114.162H325.679C327.177 114.162 328.497 112.948 328.627 111.451L329.098 106.074C329.105 105.992 329.109 105.911 329.109 105.831C329.106 104.448 328.039 103.363 326.625 103.363H175.183C173.686 103.363 172.366 104.578 172.235 106.074L171.765 111.451C171.758 111.532 171.754 111.614 171.754 111.694ZM226.125 75.6257H312.17C313.667 75.6257 314.987 74.4123 315.118 72.9163L315.589 67.539C315.595 67.4563 315.599 67.3763 315.599 67.2963C315.597 65.9123 314.53 64.8283 313.115 64.8283H227.069L226.125 75.6257Z" fill="#DBE8F7"/>
<path d="M325.679 114.162H174.238C172.742 114.162 171.634 112.949 171.764 111.451L172.235 106.074C172.366 104.578 173.686 103.363 175.183 103.363H326.624C328.12 103.363 329.228 104.578 329.098 106.074L328.627 111.451C328.496 112.949 327.176 114.162 325.679 114.162Z" fill="#4870C0"/>
<path d="M325.679 114.162H174.238C172.823 114.162 171.757 113.078 171.754 111.694C171.754 111.614 171.758 111.533 171.765 111.451L172.235 106.074C172.366 104.578 173.686 103.363 175.183 103.363H326.625C328.039 103.363 329.106 104.449 329.109 105.831C329.109 105.911 329.105 105.993 329.098 106.074L328.627 111.451C328.497 112.949 327.177 114.162 325.679 114.162Z" fill="#A1BCE6"/>
<path d="M408.82 114.162H335.809C334.313 114.162 333.205 112.949 333.336 111.451L333.806 106.074C333.937 104.578 335.257 103.363 336.754 103.363H409.764C411.261 103.363 412.369 104.578 412.237 106.074L411.766 111.451C411.636 112.949 410.316 114.162 408.82 114.162Z" fill="#4870C0"/>
<path d="M408.82 114.162H335.809C334.395 114.162 333.328 113.078 333.325 111.694C333.325 111.614 333.329 111.533 333.336 111.451L333.807 106.074C333.937 104.578 335.257 103.363 336.755 103.363H409.764C411.18 103.363 412.247 104.449 412.248 105.831C412.248 105.911 412.245 105.993 412.237 106.074L411.767 111.451C411.636 112.949 410.316 114.162 408.82 114.162Z" fill="#A1BCE6"/>
<path d="M323.994 133.43H172.553C171.056 133.43 169.949 132.216 170.08 130.718L170.55 125.342C170.681 123.844 172.001 122.631 173.498 122.631H324.938C326.436 122.631 327.544 123.844 327.413 125.342L326.942 130.718C326.812 132.216 325.492 133.43 323.994 133.43Z" fill="#4870C0"/>
<path d="M323.994 133.43H172.552C171.138 133.43 170.07 132.344 170.068 130.962C170.068 130.882 170.071 130.8 170.079 130.718L170.55 125.342C170.68 123.844 172 122.631 173.498 122.631H324.938C326.354 122.631 327.42 123.715 327.423 125.099C327.423 125.179 327.419 125.26 327.412 125.342L326.942 130.718C326.811 132.216 325.491 133.43 323.994 133.43Z" fill="#A1BCE6"/>
<path d="M289.848 171.965H169.181C167.685 171.965 166.577 170.752 166.708 169.254L167.178 163.878C167.31 162.381 168.629 161.166 170.126 161.166H290.793C292.289 161.166 293.397 162.381 293.266 163.878L292.796 169.254C292.665 170.752 291.345 171.965 289.848 171.965Z" fill="#4870C0"/>
<path d="M232.436 84.0959H225.384L224.438 94.8945H231.492C232.988 94.8945 234.309 93.6812 234.44 92.1839L234.909 86.8065C235.04 85.3105 233.933 84.0959 232.436 84.0959Z" fill="#4870C0"/>
<path d="M313.116 64.8277H227.069L226.125 75.625H312.17C313.668 75.625 314.988 74.4117 315.118 72.9157L315.589 67.5383C315.72 66.041 314.612 64.8277 313.116 64.8277Z" fill="#4870C0"/>
<path d="M312.17 75.625H226.125L227.069 64.8277H313.116C314.53 64.8277 315.597 65.9117 315.6 67.2957C315.6 67.3757 315.596 67.4556 315.589 67.5383L315.118 72.9157C314.988 74.4117 313.668 75.625 312.17 75.625Z" fill="#A1BCE6"/>
<path d="M446.078 141.899H171.812C170.316 141.899 168.996 143.112 168.865 144.609L168.394 149.987C168.262 151.484 169.37 152.697 170.868 152.697H445.133L446.078 141.899Z" fill="#4870C0"/>
<path d="M445.133 152.697H170.868C169.452 152.697 168.385 151.613 168.384 150.229C168.384 150.149 168.386 150.068 168.394 149.987L168.865 144.609C168.996 143.112 170.316 141.899 171.812 141.899H446.078L445.133 152.697Z" fill="#A1BCE6"/>
<path d="M447.763 122.631H335.067C333.571 122.631 332.251 123.844 332.121 125.342L331.65 130.719C331.519 132.216 332.626 133.43 334.123 133.43H446.819L447.763 122.631Z" fill="#4870C0"/>
<path d="M326.382 180.435H292.205L291.261 191.232H325.437C326.934 191.232 328.254 190.019 328.385 188.522L328.855 183.146C328.986 181.648 327.878 180.435 326.382 180.435Z" fill="#4870C0"/>
<path d="M216.954 180.435H168.441C166.944 180.435 165.624 181.648 165.493 183.146L165.022 188.522C164.892 190.019 165.998 191.232 167.496 191.232H216.01L216.954 180.435Z" fill="#4870C0"/>
<path d="M325.437 191.232H291.261L292.205 180.435H326.382C327.797 180.435 328.865 181.519 328.866 182.903C328.866 182.983 328.862 183.063 328.855 183.146L328.385 188.522C328.254 190.019 326.934 191.232 325.437 191.232Z" fill="#A1BCE6"/>
<path d="M188.954 191.232H167.496C166.081 191.232 165.014 190.148 165.012 188.764C165.012 188.684 165.016 188.603 165.022 188.522L165.493 183.146C165.624 181.648 166.944 180.435 168.441 180.435H195.221C195.684 181.904 196.442 183.167 197.753 184.535C197.768 184.544 197.781 184.554 197.796 184.564C197.733 185.85 197.537 186.891 197.262 187.735C194.098 187.836 192.524 189.414 191.758 190.723C191.485 190.762 191.216 190.806 190.953 190.854C190.676 190.895 189.946 191.01 188.954 191.232ZM204.685 189.035C204.505 188.954 204.314 188.875 204.116 188.798C204.169 188.592 204.222 188.387 204.274 188.182C204.404 187.675 204.526 187.174 204.6 186.692C204.7 186.692 204.8 186.69 204.9 186.686L204.774 188.056L204.685 189.035ZM216.809 182.103L211.492 182.079C211.56 181.879 211.621 181.672 211.676 181.458C211.758 181.128 211.834 180.787 211.902 180.435H216.954L216.809 182.103Z" fill="#A1BCE6"/>
<path d="M215.269 199.701H166.756C165.258 199.701 163.938 200.915 163.808 202.412L163.337 207.789C163.205 209.285 164.313 210.5 165.81 210.5H214.325L215.269 199.701Z" fill="#4870C0"/>
<path d="M177.18 210.5H165.81C164.394 210.5 163.328 209.415 163.326 208.032C163.326 207.952 163.33 207.872 163.337 207.789L163.808 202.412C163.938 200.915 165.258 199.701 166.756 199.701H176.82C176.816 199.721 176.81 199.741 176.806 199.763C176.173 202.679 176.38 206.661 177.18 210.5Z" fill="#A1BCE6"/>
<path d="M213.583 218.969H165.069C163.571 218.969 162.253 220.182 162.121 221.68L161.65 227.056C161.519 228.554 162.627 229.768 164.125 229.768H212.638L213.583 218.969Z" fill="#4870C0"/>
<path d="M299.629 218.969H288.834L287.889 229.768H298.685C300.181 229.768 301.502 228.554 301.633 227.056L302.103 221.68C302.234 220.182 301.126 218.969 299.629 218.969Z" fill="#4870C0"/>
<path d="M182.579 229.768H164.125C162.709 229.768 161.642 228.682 161.641 227.3C161.641 227.22 161.643 227.138 161.65 227.056L162.121 221.68C162.253 220.182 163.571 218.969 165.069 218.969H180.198C180.915 220.217 181.713 221.241 182.565 221.93C182.554 224.716 182.561 227.338 182.579 229.768Z" fill="#A1BCE6"/>
<path d="M298.685 229.768H287.889L288.834 218.969H299.629C301.045 218.969 302.111 220.053 302.114 221.437C302.114 221.517 302.11 221.598 302.103 221.68L301.633 227.056C301.502 228.554 300.181 229.768 298.685 229.768Z" fill="#A1BCE6"/>
<path d="M530.91 32.3809C531.233 28.6822 528.498 25.6849 524.8 25.6849H230.494L228.848 44.4982H519.082C521.532 44.4982 523.344 46.4822 523.129 48.9315L518.58 100.936H524.913L530.91 32.3809Z" fill="#4870C0"/>
<path d="M525.569 93.4355L519.24 93.3836L523.129 48.9315C523.141 48.7982 523.146 48.6649 523.146 48.5342C523.142 46.2715 521.398 44.4982 519.082 44.4982H228.848L230.494 25.6849H524.8C528.296 25.6849 530.932 28.3636 530.936 31.7809C530.936 31.9782 530.928 32.1782 530.91 32.3809L525.569 93.4355Z" fill="#799BD7"/>
<path d="M511.995 176.187L506.354 240.669C506.139 243.117 503.981 245.104 501.531 245.104H437.049L436.494 251.438H505.049C508.747 251.438 512.007 248.439 512.331 244.74L518.329 176.187H511.995Z" fill="#4870C0"/>
<path d="M505.049 251.438H458.977C458.308 249.045 457.589 246.941 456.866 245.104H501.532C503.981 245.104 506.14 243.117 506.354 240.669L511.996 176.187H518.329L512.332 244.74C512.008 248.439 508.748 251.438 505.049 251.438Z" fill="#799BD7"/>
<path d="M155.358 100.936L143.132 240.669C142.918 243.117 144.73 245.104 147.179 245.104H211.662L211.107 251.438H142.554C138.855 251.438 136.119 248.439 136.443 244.74L149.006 100.936H155.358Z" fill="#4870C0"/>
<path d="M184.073 251.438H142.554C139.057 251.438 136.422 248.757 136.417 245.34C136.417 245.143 136.425 244.943 136.444 244.74L149.006 100.936H155.358L143.133 240.669C143.121 240.803 143.116 240.935 143.116 241.067C143.118 243.329 144.864 245.104 147.18 245.104H182.882C182.94 246.812 182.982 247.739 182.982 247.739C182.982 247.739 183.385 247.851 184.17 248.016C184.118 248.896 184.076 250.041 184.073 251.438Z" fill="#799BD7"/>
<path d="M361.798 245.104H286.547L285.994 251.438H361.243L361.798 245.104Z" fill="#4870C0"/>
<path d="M361.243 251.438H285.994L286.547 245.104H361.798L361.533 248.132L361.243 251.438Z" fill="#799BD7"/>
<path d="M364.085 218.969H309.759C308.261 218.969 306.942 220.182 306.811 221.68L306.341 227.056C306.209 228.554 307.317 229.768 308.814 229.768H363.139L364.085 218.969Z" fill="#4870C0"/>
<path d="M444.319 218.969H439.336L438.391 229.768H443.375C444.872 229.768 446.192 228.554 446.323 227.056L446.793 221.68C446.924 220.182 445.816 218.969 444.319 218.969Z" fill="#4870C0"/>
<path d="M367.455 180.435H336.51C335.014 180.435 333.694 181.648 333.563 183.146L333.093 188.522C332.962 190.019 334.069 191.232 335.566 191.232H366.511L367.455 180.435Z" fill="#4870C0"/>
<path d="M536.938 55.207L536.879 55.2044C536.513 55.1724 536.242 54.8497 536.274 54.483L538.721 26.5097C538.898 24.4844 538.278 22.5857 536.974 21.1631C535.677 19.7484 533.855 18.9697 531.843 18.9697H509.19C508.821 18.9697 508.523 18.671 508.523 18.303C508.523 17.935 508.821 17.6364 509.19 17.6364H531.843C534.233 17.6364 536.405 18.5684 537.957 20.2617C539.515 21.9644 540.259 24.2244 540.049 26.6257L537.602 54.599C537.571 54.9457 537.281 55.207 536.938 55.207Z" fill="#4870C0"/>
<path d="M504.12 18.9707H498.403C498.035 18.9707 497.736 18.672 497.736 18.304C497.736 17.936 498.035 17.6374 498.403 17.6374H504.12C504.488 17.6374 504.787 17.936 504.787 18.304C504.787 18.672 504.488 18.9707 504.12 18.9707Z" fill="#4870C0"/>
<path d="M362.486 263.789H353.939C353.57 263.789 353.272 263.492 353.272 263.122C353.272 262.754 353.57 262.456 353.939 262.456H362.486C362.855 262.456 363.152 262.754 363.152 263.122C363.152 263.492 362.855 263.789 362.486 263.789Z" fill="#4870C0"/>
<path d="M346.865 263.789H285.364C284.995 263.789 284.697 263.492 284.697 263.122C284.697 262.754 284.995 262.456 285.364 262.456H346.865C347.233 262.456 347.532 262.754 347.532 263.122C347.532 263.492 347.233 263.789 346.865 263.789Z" fill="#4870C0"/>
<path d="M232.299 18.6465H240.847C241.215 18.6465 241.514 18.3478 241.514 17.9798C241.514 17.6105 241.215 17.3132 240.847 17.3132H232.299C231.931 17.3132 231.633 17.6105 231.633 17.9798C231.633 18.3478 231.931 18.6465 232.299 18.6465Z" fill="#4870C0"/>
<path d="M247.923 18.6465H309.424C309.792 18.6465 310.091 18.3478 310.091 17.9798C310.091 17.6105 309.792 17.3132 309.424 17.3132H247.923C247.555 17.3132 247.256 17.6105 247.256 17.9798C247.256 18.3478 247.555 18.6465 247.923 18.6465Z" fill="#4870C0"/>
<path d="M609.757 349.557H556.685L553.397 311.965H606.467L609.757 349.557ZM549.775 270.574H602.846L606.135 308.166H553.063L549.775 270.574ZM546.154 229.182H599.225L602.514 266.775H549.442L546.154 229.182ZM542.533 187.792H595.603L598.893 225.384H545.821L542.533 187.792ZM538.911 146.401H591.982L595.271 183.993H542.201L538.911 146.401ZM535.29 105.01H588.362L591.65 142.602H538.579L535.29 105.01ZM530.145 89.6276L554.231 364.939H558.031L557.018 353.357H610.089L611.102 364.939H614.902L590.815 89.6276H587.015L588.029 101.21H534.958L533.945 89.6276H530.145Z" fill="#1D2A30"/>
<mask id="mask0_64_5" style="mask-type:luminance" maskUnits="userSpaceOnUse" x="534" y="89" width="81" height="276">
<path d="M614.902 364.939H611.102L610.089 353.357H557.018L558.031 364.939H554.231L542.911 235.557L542.785 234.114L540.879 212.332L540.745 210.789L534.294 137.069L536.285 116.385L538.579 142.602H549.803C550.146 144.504 550.373 145.756 550.373 145.756C550.373 145.756 550.499 145.772 550.737 145.796C550.731 145.998 550.727 146.201 550.725 146.401H538.911L542.201 183.993H552.833C552.85 185.318 552.862 186.598 552.873 187.792H542.533L545.821 225.384H557.185C557.363 226.636 557.543 227.901 557.722 229.182H546.154L549.442 266.775H602.514L601.461 254.737L605.135 253.311L614.902 364.939ZM553.397 311.965L556.685 349.557H609.757L606.467 311.965H553.397ZM549.775 270.574L553.063 308.166H606.135L602.846 270.574H549.775ZM605.014 251.926C604.346 248.906 602.495 240.992 599.387 231.036L599.225 229.182H598.801C598.405 227.941 597.989 226.674 597.554 225.384H598.893L595.603 187.792H586.658L586.611 187.628L586.061 187.792H585.838C585.581 186.514 585.365 185.246 585.185 183.993H595.271L591.982 146.401H581.679C580.951 144.961 580.153 143.678 579.406 142.602H591.65L588.362 105.01H577.209C576.155 102.222 572.915 101.432 571.353 101.21H588.029L587.015 89.6276H590.815L605.014 251.926ZM588.209 229.182H568.118C568.091 227.934 568.054 226.665 568.007 225.384H586.369C586.979 226.634 587.593 227.901 588.209 229.182ZM569.563 187.792H569.251C569.279 187.534 569.309 187.269 569.342 186.998C569.418 187.268 569.491 187.533 569.563 187.792ZM549.086 105.01H543.178C542.995 104.872 542.769 104.793 542.531 104.793C542.379 104.793 542.225 104.825 542.074 104.896C542.074 104.896 542.003 104.945 541.899 105.01H540.538C539.399 104.282 537.891 102.474 537.891 102.474C537.814 102.409 537.729 102.356 537.639 102.314L537.746 101.21H554.213C553.498 101.856 552.999 102.553 552.769 103.268C551.969 103.545 551.177 103.842 550.373 104.16C549.894 104.349 549.466 104.637 549.086 105.01Z" fill="white"/>
</mask>
<g mask="url(#mask0_64_5)">
<path d="M534.294 364.939H614.902V89.6274H534.294V364.939Z" fill="#5D6C72"/>
</g>
<path d="M534.283 93.5059L530.481 93.4739L530.145 89.6285H533.945L534.283 93.5059Z" fill="#5D6C72"/>
<path d="M563.348 105.022L556.58 111.437L543.607 108.441V105.872C543.607 105.082 542.787 104.562 542.074 104.897C542.074 104.897 541.447 105.336 541.21 105.304C540.13 105.16 537.891 102.476 537.891 102.476C537.59 102.221 537.174 102.149 536.806 102.292L535.872 102.653C535.375 102.845 535.094 103.373 535.211 103.893L536.682 110.388C536.778 110.81 537.118 111.134 537.543 111.209L541.634 111.932C541.634 111.932 553.336 119.122 557.567 118.136C561.796 117.148 568.134 111.226 568.134 111.226L563.348 105.022Z" fill="#8E2F33"/>
<path d="M463.615 92.9308L460.671 94.7135L456.029 168.376L528.575 170.66L531.215 169.075L538.484 93.5388L463.615 92.9308Z" fill="#4870C0"/>
<path d="M533.407 95.3907L460.67 94.7147L453.389 169.961L526.125 170.639L533.407 95.3907Z" fill="#4870C0"/>
<path d="M526.125 170.639L453.389 169.961L455.661 146.475L457.219 146.489C457.227 146.489 457.237 146.489 457.246 146.489C458.73 146.489 460.045 145.293 460.189 143.804L460.709 138.428C460.718 138.34 460.722 138.253 460.722 138.168C460.725 136.791 459.671 135.704 458.263 135.692L456.706 135.677L460.67 94.7147L529.529 95.3547L522.246 170.603L526.125 170.639Z" fill="#DBE8F7"/>
<path d="M497.284 116.769L458.57 116.409L457.526 127.206L496.238 127.566C497.734 127.58 499.065 126.378 499.209 124.881L499.73 119.504C499.874 118.008 498.78 116.782 497.284 116.769Z" fill="#4870C0"/>
<path d="M458.264 135.691L456.706 135.676L455.661 146.473L457.22 146.488C458.714 146.502 460.045 145.3 460.189 143.803L460.709 138.427C460.854 136.929 459.76 135.704 458.264 135.691Z" fill="#4870C0"/>
<path d="M457.246 146.488C457.237 146.488 457.228 146.488 457.22 146.488L455.661 146.474L456.706 135.676L458.264 135.691C459.672 135.703 460.725 136.79 460.722 138.167C460.722 138.252 460.718 138.339 460.709 138.427L460.189 143.803C460.045 145.292 458.73 146.488 457.246 146.488Z" fill="#A1BCE6"/>
<path d="M522.246 170.601L528.574 170.66L535.857 95.4135L529.529 95.3535L522.246 170.601Z" fill="#4870C0"/>
<path d="M528.574 170.66L526.125 170.638L522.246 170.601L529.529 95.3535L535.857 95.4135L528.574 170.66Z" fill="#799BD7"/>
<path d="M552.698 76.3573C552.698 76.3573 547.795 76.7426 547.815 80.1266C547.829 82.272 549.502 78.7226 551.909 77.6333C554.315 76.5426 552.698 76.3573 552.698 76.3573Z" fill="#1D2A30"/>
<path d="M571.469 190.677C571.469 190.677 573.871 198.801 574.955 201.405C580.658 215.115 592.178 234.949 599.454 255.516L605.299 253.25C605.299 253.25 602.467 239.343 596.526 222.391C593.601 214.047 588.479 205.577 585.458 196.441C584.614 193.887 583.785 185.815 583.785 185.815L571.469 190.677Z" fill="#8E2F33"/>
<path d="M576.489 138.988C576.489 138.988 582.945 145.473 584.073 153.793C585.201 162.112 582.71 176.071 586.611 191.16L571.665 195.248C571.665 195.248 559.562 152.951 558.422 142.727L576.489 138.988Z" fill="#1D2A30"/>
<path d="M570.836 192.332C570.446 190.949 569.935 189.129 569.342 187C569.858 182.779 571.019 176.981 573.498 169.587C575.038 164.991 575.448 160.688 575.242 156.876L575.291 156.796C575.291 156.796 576.571 168.037 574.021 179.357C572.827 184.649 571.828 189.056 571.102 192.253L570.836 192.332Z" fill="#16191B"/>
<path d="M556.74 260.171L556.44 260.203C556.308 260.223 556.193 260.299 556.126 260.413C556.005 260.607 556.044 260.701 556.088 260.756C556.382 261.193 558.05 261.245 559.285 261.123C558.504 260.648 557.641 260.325 556.74 260.171ZM557.76 261.484C556.937 261.463 556.092 261.291 555.828 260.932C555.692 260.723 555.704 260.448 555.857 260.251C555.972 260.072 556.152 259.945 556.36 259.896C557.47 259.62 559.745 260.995 559.844 261.056L559.917 261.222L559.786 261.345C559.117 261.451 558.438 261.498 557.76 261.484Z" fill="#4870C0"/>
<path d="M558.212 258.624L558.122 258.614C557.84 258.631 557.818 258.744 557.806 258.783C557.754 259.231 558.768 260.379 559.576 260.884C559.516 260.132 559.228 259.416 558.748 258.835C558.601 258.702 558.41 258.627 558.212 258.624ZM559.762 261.342L559.697 261.335C558.916 260.964 557.362 259.492 557.521 258.751C557.541 258.572 557.681 258.357 558.114 258.326C558.429 258.299 558.742 258.403 558.98 258.614C559.805 259.328 559.937 261.114 559.944 261.198L559.87 261.338L559.762 261.342Z" fill="#4870C0"/>
<path d="M560.485 260.438L567.702 260.615C567.974 260.622 568.205 260.817 568.258 261.084L569.417 266.988C569.523 267.511 569.186 268.02 568.663 268.127L568.459 268.146C565.859 268.038 563.549 267.838 560.31 267.763C556.487 267.669 557.446 268.151 552.95 268.103C550.241 268.07 549.822 264.981 550.974 264.858C556.245 264.327 556.83 262.753 558.903 260.923C559.353 260.572 559.915 260.399 560.485 260.438Z" fill="#1D2A30"/>
<path d="M595.422 256.118L595.151 256.252C595.035 256.316 594.954 256.43 594.932 256.559C594.886 256.782 594.955 256.857 595.015 256.894C595.446 257.2 597.026 256.664 598.139 256.116C597.24 255.945 596.319 255.945 595.422 256.118ZM596.836 256.99C596.06 257.259 595.207 257.394 594.835 257.15C594.634 257.002 594.548 256.74 594.622 256.502C594.668 256.294 594.791 256.112 594.968 255.995C595.912 255.345 598.524 255.835 598.64 255.857L598.764 255.987L598.687 256.15C598.095 256.483 597.478 256.764 596.836 256.99Z" fill="#4870C0"/>
<path d="M596.26 254.156L596.172 254.177C595.913 254.292 595.933 254.405 595.934 254.446C596.044 254.884 597.396 255.603 598.329 255.792C598.009 255.11 597.488 254.541 596.834 254.165C596.65 254.092 596.447 254.088 596.26 254.156ZM598.664 256.157L598.6 256.172C597.738 256.1 595.767 255.265 595.657 254.516C595.613 254.34 595.669 254.091 596.063 253.908C596.349 253.774 596.679 253.762 596.975 253.876C597.997 254.255 598.748 255.883 598.784 255.957L598.763 256.115L598.664 256.157Z" fill="#4870C0"/>
<path d="M599.022 255.054L605.844 252.691C606.101 252.602 606.386 252.704 606.529 252.934L609.685 258.057C609.969 258.509 609.832 259.106 609.378 259.39L609.194 259.478C606.721 260.288 604.488 260.91 601.426 261.976C597.814 263.228 598.881 263.342 594.654 264.876C592.106 265.795 590.63 263.049 591.666 262.529C596.416 260.183 596.413 258.505 597.712 256.064C598.01 255.578 598.477 255.219 599.022 255.054Z" fill="#1D2A30"/>
<path d="M554.132 190.548C554.132 190.548 553.907 199.017 554.132 201.829C555.322 216.631 560.148 239.053 560.712 260.861H566.918C566.918 260.861 568.784 244.443 567.971 224.473C567.659 216.829 565.643 208.777 565.602 200.7C565.587 198.011 567.294 190.077 567.294 190.077L554.132 190.548Z" fill="#8E2F33"/>
<path d="M570.114 140.539C570.114 140.539 578.993 153.19 573.498 169.586C567.67 186.977 569.126 195.531 569.126 195.531H552.911C552.911 195.531 552.911 172.763 552.206 165.215C551.71 159.903 550.373 154.075 550.795 143.923L570.114 140.539Z" fill="#1D2A30"/>
<path d="M569.305 192.281L569.802 196.16H552.246V192.281H569.305Z" fill="#1D2A30"/>
<path d="M569.802 196.16H552.246V192.281H569.305L569.802 196.16Z" fill="#758288"/>
<path d="M586.612 187.629L570.296 192.495L571.469 196.16L587.709 191.438L586.612 187.629Z" fill="#1D2A30"/>
<path d="M571.469 196.16L570.296 192.495L586.612 187.629L587.709 191.438L584.616 192.336L573.009 195.712L571.469 196.16Z" fill="#758288"/>
<path d="M564.53 100.695C564.53 100.695 560.882 100.32 560.941 93.6084C560.941 93.6084 557.572 92.0684 555.389 94.051C553.205 96.0337 557.357 100.668 554.646 102.616C554.646 102.616 557.026 104.22 564.53 100.695Z" fill="#8E2F33"/>
<path d="M548.557 84.1887C548.523 83.7394 548.258 83.3914 547.965 83.414C547.671 83.4367 547.459 83.818 547.493 84.2674C547.527 84.7167 547.791 85.0634 548.086 85.042C548.379 85.0194 548.591 84.638 548.557 84.1887Z" fill="#1D2A30"/>
<path d="M548.25 85.0016L545.878 88.1362C545.878 88.1362 546.907 89.0336 548.487 88.6082L548.25 85.0016Z" fill="#BB2024"/>
<path d="M564.092 83.4863C563.82 89.1703 563.827 91.5876 560.997 94.5409C556.652 97.5676 549.807 97.4089 548.376 91.7516C547.088 86.6623 547.749 78.2409 553.285 75.8743C557.232 74.1889 561.797 76.0223 563.483 79.9689C563.956 81.0783 564.165 82.2823 564.092 83.4863Z" fill="#8E2F33"/>
<path d="M549.399 82.8574L549.155 82.8054C548.663 82.3481 547.978 82.1574 547.32 82.2921C547.181 82.3308 547.039 82.2494 546.999 82.1121C546.961 81.9721 547.04 81.8267 547.178 81.7841C548.008 81.6014 548.873 81.8321 549.501 82.4014L549.548 82.7628L549.538 82.7734L549.399 82.8574Z" fill="#1D2A30"/>
<path d="M548.075 83.4361L546.836 83.2561C546.836 83.2561 547.576 84.1014 548.075 83.4361Z" fill="#1D2A30"/>
<path d="M555.294 98.668C555.223 98.3813 555.147 98.096 555.075 97.8106C555.149 98.096 555.225 98.3813 555.297 98.6666C555.295 98.6666 555.295 98.6666 555.294 98.668Z" fill="#CECDCC"/>
<path d="M555.297 98.668C555.225 98.3826 555.149 98.0973 555.076 97.812C554.964 97.364 554.86 96.9227 554.797 96.4973C554.828 96.4987 554.86 96.4986 554.889 96.4986C555.938 96.4986 557.018 96.3213 558.062 95.9853C558.153 95.9573 558.244 95.9267 558.334 95.8947C557.956 96.5173 557.016 97.808 555.297 98.668Z" fill="#702629"/>
<path d="M554.889 96.498C554.86 96.498 554.828 96.4981 554.797 96.4967C554.797 96.4941 554.797 96.4914 554.796 96.4874C554.829 96.4874 554.861 96.4887 554.895 96.4887C555.941 96.4887 557.02 96.3181 558.063 95.9847C557.019 96.3207 555.939 96.498 554.889 96.498Z" fill="#702629"/>
<path d="M567.294 101.622C567.294 101.622 567.294 97.11 562.03 97.9567C556.765 98.802 552.817 101.341 552.629 103.973L567.294 101.622Z" fill="#4870C0"/>
<path d="M552.769 103.268C553.535 100.898 557.237 98.7249 562.03 97.9556C562.481 97.8823 562.894 97.8489 563.271 97.8489C566.275 97.8489 567.035 99.9529 567.229 101.018C560.967 101.024 556.797 101.874 552.769 103.268Z" fill="#4168BB"/>
<path d="M570.493 101.127C570.493 101.127 577.549 101.341 577.549 106.981C577.549 112.621 573.499 114.971 573.499 114.971L570.493 101.127Z" fill="#4870C0"/>
<path d="M574.916 113.791C575.438 107.596 575.425 101.83 570.493 101.126C570.493 101.126 577.549 101.34 577.549 106.98C577.549 110.372 576.084 112.574 574.916 113.791Z" fill="#4168BB"/>
<path d="M578.574 139.693C578.574 139.693 575.048 132.783 574.344 124.465C573.639 116.146 578.714 101.341 569.69 101.058C560.666 100.777 555.731 102.046 550.372 104.161C545.015 106.275 546.143 120.799 546.988 126.298C547.835 131.797 550.372 145.757 550.372 145.757C550.372 145.757 565.742 147.73 578.574 139.693Z" fill="#4870C0"/>
<path d="M546.557 122.699C546.289 119.801 546.141 116.214 546.431 112.949L552.549 112.194C552.549 112.194 550.193 118.727 546.557 122.699Z" fill="#4168BB"/>
<path d="M541.49 111.212L534.722 117.626L521.75 114.63V111.873C521.75 111.172 521.02 110.709 520.385 111.006C520.385 111.006 519.506 111.23 519.224 111.192C518.125 111.045 515.98 108.62 515.98 108.62C515.712 108.392 515.342 108.329 515.013 108.456L512.266 111.018C511.854 111.297 511.626 111.73 511.732 112.194L514.68 116.432C514.788 116.801 515.374 117.294 515.758 117.337L519.776 118.12C519.776 118.12 531.48 125.312 535.709 124.325C539.94 123.337 546.276 117.416 546.276 117.416L541.49 111.212Z" fill="#8E2F33"/>
<path d="M550.373 104.161C550.373 104.161 546.144 105.384 540.033 110.741C540.033 110.741 540.268 114.972 545.639 119.621C545.639 119.621 551.408 116.005 553.193 110.646C554.98 105.289 550.373 104.161 550.373 104.161Z" fill="#4870C0"/>
<path d="M552.548 75.249C552.548 75.249 548.576 77.0823 549.6 79.973C550.624 82.8637 551.259 85.3317 550.483 86.2477C549.708 87.1637 552.387 87.4263 552.246 84.2277C552.246 84.2277 552.602 88.2383 554.646 88.7237C556.688 89.209 558.082 95.1783 556.37 98.0103C554.658 100.841 554.267 107.478 555.96 108.949C557.654 110.418 560.88 111.905 560.495 114.518C560.11 117.133 564.372 115.368 563.527 112.194C563.527 112.194 565.854 115.788 568.674 112.545C571.494 109.302 566.982 106.341 566.982 106.341C566.982 106.341 570.407 107.398 570.492 109.23C570.576 111.064 571.704 111.981 573.044 109.936C574.384 107.892 573.535 105.492 572.199 104.161C572.199 104.161 574.47 103.781 574.742 105.366C575.014 106.952 577.627 104.302 575.371 102.22C573.115 100.137 569.167 99.0797 569.238 91.041C569.308 83.0037 567.756 76.1663 561.623 74.7557C555.49 73.3463 552.548 75.249 552.548 75.249Z" fill="#1D2A30"/>
<path d="M553.983 85.4145C553.12 86.1945 552.604 87.2852 552.55 88.4465C552.488 89.9892 553.958 90.4172 555.23 89.7039C556.382 89.0585 557.787 87.4812 557.243 86.0665C556.7 84.6532 555.048 84.4719 553.983 85.4145Z" fill="#8E2F33"/>
<path d="M457.483 182.625L381.766 182.3L379.527 184.06L379.001 226.813L377.998 237.612L376.575 252.944L376.294 255.975L375.987 259.277L447.787 259.66L451.074 256.33L457.483 182.625Z" fill="#4870C0"/>
<path d="M372.881 255.957L448.094 256.355L454.77 184.41L379.528 184.061L372.881 255.957Z" fill="#4870C0"/>
<path d="M372.965 255.051L379.528 184.061L424.393 184.269C424.486 185.165 424.636 186.017 424.832 186.789C425.644 190.004 428.241 191.404 431.11 191.435C431.176 191.867 431.285 192.317 431.402 192.772C431.469 193.035 431.538 193.299 431.604 193.56C431.605 193.56 431.605 193.56 431.605 193.56C431.717 194.005 431.814 194.447 431.866 194.871C430.437 195.624 429.416 196.428 428.698 197.137C427.557 197.628 426.46 198.263 425.446 199.092C424.093 199.305 422.557 199.96 421.005 201.456C416.414 205.885 408.59 216.561 408.59 216.561L407.924 216.483V215.024H404.136V217.085L393.596 215.272L392.941 213.997C392.525 213.189 391.694 212.697 390.809 212.697C390.653 212.697 390.496 212.713 390.34 212.744L389.644 212.884L387.848 211.581C387.426 211.277 386.933 211.125 386.441 211.125C385.9 211.125 385.359 211.308 384.919 211.669C384.365 212.125 384.044 212.805 384.044 213.523V215.093C384.044 215.584 384.194 216.064 384.477 216.467L385.689 218.199C386.106 218.795 386.772 219.169 387.497 219.217L392.689 219.555L404.136 222.459V224.724L407.924 225.564V224.672C408.26 224.704 408.621 224.724 409.002 224.724C410.334 224.724 411.904 224.484 413.462 223.693C414.969 222.929 417.762 220.277 420.65 217.28C421.289 227.299 423.648 238.425 423.648 238.425C423.877 238.483 424.105 238.537 424.334 238.591C423.634 243.256 423.266 248.255 423.113 253.193L373.161 252.928L372.965 255.051ZM451.118 223.768C450.765 220.785 450.602 218.049 450.549 215.233C451.049 215.083 451.54 214.759 452.005 214.217L451.118 223.768ZM452.926 204.289C451.646 201.16 449.42 198.721 448.596 197.884C447.088 196.213 444.929 195.563 442.693 195.355C441.905 194.365 440.405 193.092 437.9 193.084C437.514 192.232 437.222 191.087 437.148 189.547C437.16 189.537 437.173 189.529 437.185 189.52C438.779 187.856 439.454 186.367 439.79 184.341L454.77 184.411L452.926 204.289Z" fill="#DBE8F7"/>
<path d="M414.942 188.449L379.162 188.26L378.159 199.057L413.939 199.248C415.437 199.256 416.762 198.049 416.901 196.552L417.399 191.175C417.538 189.677 416.438 188.457 414.942 188.449Z" fill="#4870C0"/>
<path d="M374.585 237.594L449.798 237.992L450.801 227.194L375.586 226.795L374.585 237.594Z" fill="#4870C0"/>
<path d="M373.161 252.927L372.574 259.26L447.788 259.66L448.376 253.327L373.161 252.927Z" fill="#4870C0"/>
<path d="M423.025 259.529L372.574 259.262L373.161 252.928L423.113 253.193C423.046 255.327 423.02 257.451 423.025 259.529Z" fill="#799BD7"/>
<path d="M426.341 270.139C426.341 270.139 427.197 287.696 427.593 293.542C428.67 309.474 432.807 357.205 432.807 357.205H439.899C439.899 357.205 442.615 335.293 441.838 316.465C441.518 308.682 439.169 301.772 438.649 296.462C438.122 291.106 441.151 282.656 439.065 274.938C437.099 267.663 426.341 270.139 426.341 270.139Z" fill="#F9B1BD"/>
<path d="M443.213 270.57C443.213 270.57 444.713 289.003 445.589 295.104C447.828 310.713 457.404 357.062 457.404 357.062L464.489 356.74C464.489 356.74 464.333 332.791 461.113 313.792C460.04 307.46 458.322 301.999 457.64 297.491C456.786 291.869 458.581 282.397 456.145 274.781C453.848 267.605 443.213 270.57 443.213 270.57Z" fill="#F9B1BD"/>
<path d="M450.522 234.182C450.522 234.182 463.038 245.82 462.599 283.808C462.599 283.808 445.451 291.494 424.526 285.784C424.526 285.784 421.147 257.896 424.526 237.366L450.522 234.182Z" fill="#1D2A30"/>
<path d="M424.917 180.395C424.883 179.955 424.625 179.615 424.337 179.637C424.049 179.66 423.843 180.033 423.875 180.473C423.909 180.912 424.169 181.252 424.455 181.229C424.743 181.209 424.95 180.835 424.917 180.395Z" fill="#1D2A30"/>
<path d="M424.443 179.659L423.231 179.481C423.231 179.481 423.957 180.309 424.443 179.659Z" fill="#1D2A30"/>
<path d="M440.644 195.544C440.644 195.544 437.073 195.176 437.13 188.607C437.13 188.607 433.833 187.099 431.696 189.04C429.558 190.981 433.622 195.517 430.968 197.425C430.968 197.425 433.298 198.995 440.644 195.544Z" fill="#F9B1BD"/>
<path d="M424.883 181.016L422.561 184.084C422.561 184.084 423.569 184.962 425.115 184.546L424.883 181.016Z" fill="#F5782F"/>
<path d="M440.215 178.698C439.948 184.264 439.955 186.629 437.184 189.52C432.931 192.482 426.231 192.328 424.831 186.789C423.57 181.808 424.218 173.564 429.636 171.248C433.499 169.598 437.968 171.392 439.618 175.256C440.082 176.341 440.286 177.52 440.215 178.698Z" fill="#F9B1BD"/>
<path d="M425.921 179.092L425.681 179.04C425.198 178.593 424.53 178.405 423.886 178.538C423.75 178.574 423.61 178.497 423.57 178.361C423.534 178.224 423.612 178.082 423.748 178.04C424.558 177.861 425.405 178.086 426.021 178.645L426.065 178.998L426.057 179.008L425.921 179.092Z" fill="#1D2A30"/>
<path d="M431.604 193.559C431.538 193.297 431.469 193.033 431.402 192.771C431.47 193.033 431.54 193.296 431.605 193.559C431.605 193.559 431.605 193.559 431.604 193.559Z" fill="#ADB7D0"/>
<path d="M431.605 193.559C431.54 193.296 431.471 193.033 431.403 192.771C431.288 192.316 431.181 191.865 431.117 191.433C431.148 191.435 431.177 191.435 431.208 191.435C432.215 191.435 433.253 191.267 434.257 190.951C434.365 190.917 434.472 190.881 434.579 190.844C434.209 191.453 433.288 192.716 431.605 193.559Z" fill="#DD9092"/>
<path d="M431.207 191.436C431.177 191.436 431.147 191.436 431.117 191.434C431.117 191.432 431.115 191.428 431.115 191.425C431.147 191.425 431.179 191.425 431.211 191.425C432.218 191.425 433.254 191.265 434.257 190.952C433.253 191.268 432.214 191.436 431.207 191.436Z" fill="#DD9092"/>
<path d="M443.406 196.497C443.406 196.497 441.345 191.525 434.964 193.584C428.581 195.642 427.161 199.205 427.161 199.205L443.406 196.497Z" fill="#4870C0"/>
<path d="M428.698 197.137C429.854 195.994 431.8 194.603 434.964 193.583C436.058 193.23 437.025 193.083 437.877 193.083C440.396 193.083 441.902 194.362 442.693 195.354C442.049 195.294 441.398 195.271 440.756 195.271C439.521 195.271 438.314 195.357 437.23 195.429C434.533 195.609 431.488 195.938 428.698 197.137Z" fill="#395EB4"/>
<path d="M448.276 197.569C448.276 197.569 456.533 205.199 452.978 212.665C449.425 220.129 443.406 209.591 443.406 209.591L448.276 197.569Z" fill="#4870C0"/>
<path d="M450.549 215.232C450.492 212.122 450.566 208.911 450.666 205.158C450.76 201.656 449.936 199.367 448.596 197.883C449.782 199.087 453.872 203.61 453.866 208.732C453.866 210.019 453.606 211.344 452.978 212.664C452.249 214.196 451.414 214.971 450.549 215.232Z" fill="#395EB4"/>
<path d="M432.665 356.445L440.616 356.642C440.916 356.65 441.171 356.863 441.229 357.158L442.507 363.662C442.623 364.237 442.252 364.799 441.676 364.917L441.45 364.939C438.586 364.818 436.041 364.598 432.473 364.514C428.261 364.411 429.317 364.942 424.365 364.889C421.381 364.856 420.92 361.45 422.188 361.316C427.995 360.73 428.64 358.998 430.924 356.981C431.419 356.596 432.039 356.404 432.665 356.445Z" fill="#1D2A30"/>
<path d="M457.416 356.363L465.369 356.431C465.669 356.432 465.926 356.643 465.989 356.936L467.372 363.417C467.5 363.992 467.137 364.559 466.562 364.687L466.338 364.712C463.472 364.638 460.924 364.459 457.354 364.435C453.142 364.399 454.206 364.912 449.254 364.941C446.27 364.955 445.753 361.559 447.02 361.401C452.816 360.723 453.432 358.98 455.682 356.926C456.172 356.532 456.788 356.332 457.416 356.363Z" fill="#1D2A30"/>
<path d="M452.978 234.457C452.978 234.457 441.526 242.878 423.647 238.425C423.647 238.425 418.021 211.881 421.795 203.872C425.159 196.732 431.881 195.786 437.23 195.429C442.581 195.072 450.951 194.41 450.666 205.158C450.381 215.904 450.294 222.196 452.978 234.457Z" fill="#4870C0"/>
<path d="M421.194 223.195C420.967 221.242 420.777 219.239 420.651 217.279C422.966 214.877 425.341 212.253 427.161 210.201H427.162L421.194 223.195Z" fill="#395EB4"/>
<path d="M408.912 217.906L393.596 215.271L392.941 213.997C392.452 213.046 391.389 212.534 390.34 212.743L389.644 212.883L387.848 211.581C386.965 210.942 385.763 210.978 384.92 211.669C384.365 212.125 384.044 212.805 384.044 213.522V215.093C384.044 215.583 384.195 216.063 384.477 216.466L385.689 218.198C386.107 218.794 386.772 219.169 387.497 219.217L392.689 219.554L408.912 223.67V217.906Z" fill="#F9B1BD"/>
<path d="M430.057 199.963C430.057 199.963 425.597 197.027 421.005 201.455C416.414 205.884 408.59 216.56 408.59 216.56L405.81 216.228L405.446 224.147C405.446 224.147 409.49 225.707 413.462 223.692C417.433 221.677 430.349 206.549 430.349 206.549C430.349 206.549 432.04 202.107 430.057 199.963Z" fill="#4870C0"/>
<path d="M407.924 215.022V219.387L406.688 219.964L407.924 220.787V225.562L404.136 224.722V215.022H407.924Z" fill="#4870C0"/>
<path d="M407.924 225.562L404.136 224.722V215.022H407.924V219.387L406.688 219.964L407.924 220.787V224.671V225.562Z" fill="#A1BCE6"/>
<path d="M441.949 287.871C441.279 269.479 446.614 262.721 446.614 262.721C444.173 273.895 444.834 284.137 445.185 287.711C444.139 287.788 443.061 287.843 441.949 287.871Z" fill="#161C1E"/>
<path d="M432.846 169.183C432.846 169.183 441.794 166.07 443.406 175.169C445.018 184.267 453.133 186.582 448.637 192.647C444.14 198.714 431.205 194.165 430.968 189.055C430.732 183.947 430.808 175.41 428.916 174.291C428.916 174.291 430.052 177.803 428.916 177.803C427.78 177.803 427.012 176.513 427.161 174.69C427.161 174.69 427.102 176.925 424.488 176.127C421.873 175.33 426.03 172.377 426.03 172.377C426.03 172.377 424.056 173.174 423.324 173.973C422.592 174.771 422.386 173.573 423.324 172.057C424.052 170.879 427.221 168.146 432.846 169.183Z" fill="#1D2A30"/>
<path d="M430.32 180.585C429.477 181.349 428.972 182.417 428.917 183.555C428.857 185.063 430.296 185.484 431.54 184.785C432.668 184.155 434.044 182.609 433.512 181.224C432.981 179.841 431.362 179.664 430.32 180.585Z" fill="#F9B1BD"/>
<path d="M215.533 215.149L222.88 214.145L223.445 212.345C223.677 211.609 224.449 211.187 225.193 211.389L226.027 211.615L229.201 209.96C229.439 209.836 229.707 209.78 229.975 209.801C230.736 209.859 231.32 210.504 231.301 211.269L231.232 214.165L231.215 214.351L230.873 216.543C230.777 217.16 230.295 217.644 229.677 217.741L225.085 218.465L216.645 220.256L215.533 215.149Z" fill="#F8A461"/>
<path d="M220.674 213.12C220.674 213.12 214.974 213.596 209.273 213.12C207.266 212.952 205.509 211.471 203.914 209.411L197.561 218.699C199.371 220.487 201.131 221.805 202.705 222.304C210.702 224.837 221.939 220.245 221.939 220.245C223.365 215.812 220.674 213.12 220.674 213.12Z" fill="#1D2A30"/>
<path d="M207.615 182.06L200.533 259.066L273.521 259.35L275.788 257.496L282.919 182.408L207.615 182.06Z" fill="#4870C0"/>
<path d="M198.597 255.753L273.822 256.037L280.387 184.092L205.162 183.808L198.597 255.753Z" fill="#4870C0"/>
<path d="M274.098 253.008L203.62 252.742L203.165 249.281C207.537 249.116 212.549 248.661 218.132 247.737C218.132 247.737 217.816 243.613 217.698 237.456L275.498 237.673L275.802 234.332L274.098 253.008Z" fill="#DBE8F7"/>
<path d="M276.484 226.877L217.744 226.654C217.821 223.945 217.957 221.116 218.172 218.258C218.172 218.26 218.172 218.26 218.173 218.26L218.174 218.261C218.176 218.236 218.177 218.21 218.18 218.185L257.466 218.333C257.47 218.333 257.474 218.333 257.478 218.333C258.97 218.333 260.288 217.125 260.424 215.632L260.914 210.256C260.921 210.174 260.925 210.093 260.925 210.013C260.929 208.629 259.866 207.541 258.452 207.534L219.312 207.388C219.632 203.846 219.616 201.08 219.25 198.914L279.014 199.14L276.484 226.877ZM279.358 195.378L280 188.341L204.774 188.057L204.9 186.686C207.197 186.592 209.31 185.701 210.617 183.829L280.388 184.093L279.358 195.378Z" fill="#DBE8F7"/>
<path d="M200.272 237.39L275.498 237.674L276.483 226.876L201.258 226.592L200.272 237.39Z" fill="#4870C0"/>
<path d="M275.498 237.674L217.698 237.456C217.637 234.296 217.629 230.603 217.744 226.654L276.484 226.876L275.498 237.674Z" fill="#A1BCE6"/>
<path d="M258.451 207.533L203.017 207.325L202.031 218.123L257.466 218.332C258.962 218.337 260.286 217.128 260.423 215.631L260.914 210.255C261.05 208.757 259.949 207.54 258.451 207.533Z" fill="#4870C0"/>
<path d="M257.478 218.332C257.474 218.332 257.47 218.332 257.466 218.332L218.18 218.184C218.35 215.936 218.568 213.672 218.849 211.435C218.849 211.428 218.85 211.419 218.852 211.412C218.854 211.387 218.858 211.36 218.861 211.333C218.864 211.312 218.866 211.292 218.869 211.271C218.87 211.259 218.872 211.247 218.873 211.236C218.877 211.209 218.88 211.184 218.884 211.157C218.885 211.143 218.888 211.129 218.889 211.115C218.892 211.093 218.894 211.071 218.897 211.049C218.9 211.029 218.902 211.008 218.905 210.987C218.908 210.973 218.909 210.957 218.91 210.944C218.916 210.911 218.92 210.879 218.924 210.845C218.926 210.828 218.928 210.812 218.93 210.795C218.932 210.784 218.933 210.775 218.934 210.764C218.936 210.757 218.936 210.749 218.937 210.743C219.092 209.552 219.216 208.436 219.312 207.387L258.452 207.533C259.866 207.54 260.929 208.628 260.925 210.012C260.925 210.092 260.921 210.173 260.914 210.255L260.424 215.631C260.288 217.124 258.97 218.332 257.478 218.332Z" fill="#A1BCE6"/>
<path d="M203.789 198.855L279.014 199.139L280 188.34L204.774 188.056L203.789 198.855Z" fill="#4870C0"/>
<path d="M279.014 199.139L219.25 198.913C218.217 192.793 214.394 191.463 207.507 190.924C207.018 190.42 206.126 189.677 204.685 189.035L204.774 188.056L279.999 188.34L279.014 199.139Z" fill="#A1BCE6"/>
<path d="M198.873 252.726L198.294 259.058L273.521 259.342L274.098 253.008L198.873 252.726Z" fill="#4870C0"/>
<path d="M273.52 259.342L204.45 259.082L203.619 252.743L274.098 253.008L273.52 259.342Z" fill="#799BD7"/>
<path d="M193.855 191.326C193.855 191.326 197.879 190.91 197.815 183.506C197.815 183.506 201.531 181.807 203.939 183.995C206.347 186.182 201.767 191.295 204.759 193.444C204.759 193.444 202.133 195.212 193.855 191.326Z" fill="#F8A461"/>
<path d="M211.476 173.113C211.512 172.617 211.805 172.236 212.129 172.26C212.453 172.284 212.686 172.706 212.649 173.201C212.612 173.697 212.32 174.08 211.996 174.056C211.672 174.03 211.438 173.61 211.476 173.113Z" fill="#1D2A30"/>
<path d="M211.814 174.012L214.43 177.47C214.43 177.47 213.294 178.46 211.553 177.991L211.814 174.012Z" fill="#F5782F"/>
<path d="M194.338 172.339C194.638 178.609 194.63 181.277 197.752 184.535C202.546 187.873 210.096 187.697 211.675 181.457C213.096 175.843 212.366 166.553 206.259 163.943C201.906 162.083 196.87 164.105 195.011 168.459C194.487 169.681 194.258 171.011 194.338 172.339Z" fill="#F8A461"/>
<path d="M210.546 171.646L210.817 171.588C211.36 171.085 212.114 170.874 212.84 171.022C212.993 171.064 213.15 170.976 213.194 170.824C213.236 170.669 213.149 170.509 212.996 170.461C212.082 170.26 211.126 170.513 210.433 171.144C210.31 171.24 210.288 171.417 210.384 171.541L210.393 171.553L210.546 171.646Z" fill="#1D2A30"/>
<path d="M204.116 188.797C204.116 188.797 204.116 188.797 204.114 188.797C204.168 188.592 204.221 188.386 204.274 188.181C204.222 188.386 204.169 188.592 204.116 188.797Z" fill="#7A95D4"/>
<path d="M204.114 188.797C203.74 188.652 203.332 188.514 202.89 188.389C201.71 187.536 201.014 186.56 200.69 186.028C200.78 186.058 200.868 186.088 200.957 186.117C202.118 186.493 203.322 186.693 204.489 186.693C204.524 186.693 204.557 186.693 204.592 186.692C204.521 187.173 204.402 187.674 204.274 188.181C204.221 188.386 204.168 188.592 204.114 188.797Z" fill="#DE8546"/>
<path d="M204.489 186.693C203.322 186.693 202.118 186.493 200.957 186.117C202.117 186.491 203.32 186.683 204.485 186.683C204.521 186.683 204.557 186.681 204.593 186.681C204.593 186.685 204.592 186.689 204.592 186.692C204.557 186.693 204.524 186.693 204.489 186.693Z" fill="#DE8546"/>
<path d="M191.074 192.48C191.074 192.48 191.829 187.751 197.549 187.73C205.624 187.699 207.998 191.512 207.998 191.512L191.074 192.48Z" fill="#1D2A30"/>
<path d="M207.507 190.924C206.567 190.85 205.57 190.792 204.515 190.737C201.642 190.591 198.96 190.441 196.534 190.441C194.806 190.441 193.207 190.517 191.758 190.722C192.546 189.374 194.192 187.743 197.548 187.729C197.58 187.729 197.614 187.729 197.647 187.729C203.648 187.729 206.472 189.861 207.507 190.924Z" fill="#161C1E"/>
<path d="M189.293 350.096L190.008 362.051L196.708 361.807L197.09 350.336L189.293 350.096Z" fill="#F8A461"/>
<path d="M198.367 360.822C199.667 360.977 201.428 360.957 201.751 360.501C201.797 360.445 201.84 360.344 201.716 360.14C201.649 360.017 201.528 359.933 201.391 359.909L201.073 359.87C200.12 360.013 199.201 360.336 198.367 360.822ZM197.832 361.048L197.697 360.911L197.776 360.739C197.883 360.676 200.313 359.273 201.481 359.588C201.7 359.644 201.887 359.781 202.005 359.973C202.163 360.185 202.169 360.473 202.021 360.692C201.735 361.066 200.839 361.23 199.969 361.234C199.252 361.234 198.537 361.17 197.832 361.048Z" fill="#4870C0"/>
<path d="M199.552 358.208C199.342 358.206 199.14 358.28 198.981 358.417C198.462 359.023 198.142 359.772 198.064 360.564C198.928 360.048 200.021 358.857 199.977 358.385C199.964 358.341 199.944 358.223 199.646 358.199L199.552 358.208ZM197.744 361.037L197.669 360.889C197.677 360.8 197.854 358.916 198.741 358.18C198.996 357.963 199.328 357.859 199.661 357.892C200.117 357.937 200.261 358.166 200.278 358.356C200.43 359.14 198.76 360.664 197.926 361.037L197.857 361.045L197.744 361.037Z" fill="#4870C0"/>
<path d="M197.112 360.073L189.487 360.11C189.199 360.112 188.951 360.312 188.89 360.593L187.54 366.804C187.418 367.353 187.763 367.898 188.314 368.022L188.528 368.048C191.276 367.986 193.72 367.825 197.143 367.813C201.182 367.795 200.159 368.281 204.908 368.328C207.768 368.35 208.276 365.097 207.063 364.943C201.508 364.271 200.923 362.597 198.771 360.62C198.304 360.24 197.714 360.046 197.112 360.073Z" fill="#1D2A30"/>
<path d="M196.892 356.273H189.662L189.539 354.205L196.958 354.291L196.939 354.871L196.891 356.273" fill="#DE8546"/>
<path d="M184.355 245.889C184.355 245.889 182.937 255.915 186.465 272.701C187.955 279.787 190.333 294.172 190.265 301.412C190.22 306.212 189.209 308.38 187.521 320.412C185.832 332.446 188.365 354.19 188.365 354.19L198.069 354.303C198.069 354.303 204.121 314.104 205.255 300.146C205.831 293.041 206.099 271.646 206.099 271.646L202.721 245.889H184.355Z" fill="#4870C0"/>
<path d="M205.693 290.764C198.474 278.218 196.305 262.906 196.305 262.906L201.049 264.072L206.011 270.985L206.098 271.646C206.098 271.648 206.098 271.648 206.098 271.648V271.649C206.098 271.651 206.098 271.652 206.098 271.653V271.654V271.656C206.098 271.66 206.098 271.666 206.098 271.673C206.098 271.675 206.098 271.675 206.098 271.676V271.677C206.09 272.303 205.959 282.329 205.693 290.764Z" fill="#4168BB"/>
<path d="M218.066 350.358L219.278 362.273L225.962 361.75L225.866 350.275L218.066 350.358Z" fill="#F8A461"/>
<path d="M227.578 360.697C228.884 360.797 230.644 360.704 230.946 360.234C230.99 360.176 231.029 360.075 230.897 359.875C230.824 359.756 230.701 359.675 230.562 359.658L230.244 359.632C229.296 359.816 228.392 360.176 227.578 360.697ZM227.053 360.944L226.913 360.815L226.985 360.639C227.09 360.57 229.458 359.066 230.64 359.334C230.86 359.38 231.053 359.509 231.177 359.696C231.344 359.901 231.362 360.189 231.224 360.415C230.954 360.801 230.065 361.001 229.197 361.042C228.481 361.072 227.764 361.039 227.053 360.944Z" fill="#4870C0"/>
<path d="M228.653 358.034C228.444 358.042 228.245 358.125 228.093 358.269C227.6 358.894 227.312 359.657 227.265 360.45C228.106 359.898 229.15 358.665 229.086 358.193C229.072 358.151 229.046 358.033 228.748 358.021L228.653 358.034ZM226.965 360.938L226.884 360.792C226.889 360.704 226.988 358.813 227.842 358.041C228.088 357.813 228.416 357.696 228.749 357.716C229.206 357.739 229.36 357.963 229.386 358.151C229.57 358.93 227.965 360.521 227.148 360.93L227.078 360.939L226.965 360.938Z" fill="#4870C0"/>
<path d="M226.294 360.001L218.676 360.355C218.39 360.369 218.15 360.579 218.1 360.862L217.012 367.124C216.912 367.678 217.28 368.21 217.835 368.31L218.05 368.326C220.794 368.15 223.23 367.886 226.648 367.731C230.682 367.545 229.682 368.076 234.427 367.922C237.287 367.826 237.659 364.554 236.439 364.449C230.862 364.01 230.207 362.362 227.975 360.477C227.492 360.117 226.894 359.948 226.294 360.001Z" fill="#1D2A30"/>
<path d="M225.912 355.805L225.866 350.274L225.913 355.805H225.912Z" fill="#C5C4C2"/>
<path d="M218.664 356.236L218.066 350.358L225.866 350.274L225.912 355.805L218.664 356.236Z" fill="#DE8546"/>
<path d="M194.698 245.889C194.698 245.889 193.255 261.091 201.049 275.234C208.843 289.38 209.611 293.537 210.173 300.146C210.71 306.466 210.742 308.591 211.587 321.678C212.431 334.769 217.186 354.303 217.186 354.303L227.209 353.663C227.209 353.663 227.226 312.257 225.521 297.612C224.001 284.554 216.021 245.889 216.021 245.889H194.698Z" fill="#4870C0"/>
<path d="M191.074 190.836C191.074 190.836 178.39 192.48 176.806 199.762C175.224 207.046 178.882 220.98 183.941 222.72C188.998 224.462 191.074 190.836 191.074 190.836Z" fill="#1D2A30"/>
<path d="M182.564 221.928C181.042 220.69 179.702 218.38 178.663 215.625C180.598 200.538 183.679 196.394 183.752 196.298C183.307 197.514 183.044 198.97 182.982 200.713C182.703 208.364 182.587 215.566 182.564 221.928Z" fill="#16191B"/>
<path d="M182.982 247.738C182.982 247.738 196.123 251.381 218.131 247.738C218.131 247.738 216.642 228.337 218.923 210.846C221.298 192.638 216.865 191.372 204.515 190.738C192.165 190.106 183.391 189.44 182.982 200.714C182.031 226.838 182.982 247.738 182.982 247.738Z" fill="#1D2A30"/>
<path d="M218.175 218.26L218.173 218.258C218.172 218.258 218.172 218.258 218.172 218.257C218.175 218.233 218.176 218.208 218.177 218.184H218.18C218.177 218.209 218.176 218.234 218.175 218.26Z" fill="#7B869B"/>
<path d="M218.179 218.184H218.177C218.347 215.934 218.567 213.672 218.849 211.434C218.567 213.672 218.35 215.936 218.179 218.184ZM218.851 211.412C218.854 211.385 218.858 211.36 218.861 211.333C218.858 211.36 218.854 211.386 218.851 211.412ZM218.869 211.27C218.87 211.26 218.871 211.246 218.873 211.236C218.871 211.246 218.87 211.258 218.869 211.27ZM218.883 211.157C218.885 211.144 218.887 211.128 218.889 211.114C218.887 211.129 218.885 211.142 218.883 211.157ZM218.897 211.049C218.899 211.028 218.902 211.008 218.905 210.986C218.902 211.008 218.899 211.029 218.897 211.049ZM218.923 210.845C218.926 210.829 218.927 210.81 218.93 210.794C218.927 210.812 218.926 210.828 218.923 210.845ZM218.934 210.764C218.935 210.756 218.935 210.75 218.937 210.742C218.935 210.749 218.935 210.757 218.934 210.764Z" fill="#546CA1"/>
<path d="M218.172 218.258C214.149 211.524 213.205 201.231 213.205 201.231L215.124 194.063L219.44 200.487C219.662 203.104 219.493 206.446 218.937 210.743C218.936 210.751 218.936 210.756 218.934 210.764C218.933 210.775 218.932 210.784 218.93 210.795C218.928 210.811 218.926 210.83 218.924 210.846C218.92 210.879 218.916 210.911 218.91 210.944C218.909 210.959 218.908 210.972 218.905 210.987C218.902 211.008 218.9 211.028 218.897 211.05C218.894 211.071 218.892 211.094 218.889 211.115C218.888 211.128 218.885 211.144 218.884 211.158C218.88 211.184 218.877 211.21 218.873 211.236C218.872 211.247 218.87 211.26 218.869 211.271C218.866 211.291 218.864 211.312 218.861 211.334C218.858 211.36 218.854 211.386 218.852 211.412C218.85 211.42 218.849 211.427 218.849 211.435C218.568 213.672 218.348 215.935 218.177 218.184C218.176 218.208 218.174 218.234 218.172 218.258Z" fill="#16191B"/>
<path d="M244.658 216.359L252.005 215.355L252.57 213.556C252.802 212.82 253.573 212.397 254.317 212.6L255.15 212.827L258.325 211.169C258.564 211.047 258.832 210.992 259.098 211.011C259.861 211.069 260.445 211.715 260.426 212.48L260.357 215.376L260.34 215.561L259.998 217.753C259.902 218.371 259.42 218.855 258.802 218.951L254.21 219.675L245.77 221.467L244.658 216.359Z" fill="#F8A461"/>
<path d="M211.96 191.512C211.96 191.512 221.14 191.513 225.416 197.705C228.984 202.873 232.698 213.855 238.398 214.33C244.098 214.804 249.798 214.33 249.798 214.33C249.798 214.33 252.49 217.022 251.065 221.454C251.065 221.454 239.828 226.047 231.829 223.512C223.832 220.98 211.008 197.389 211.008 197.389L211.96 191.512Z" fill="#1D2A30"/>
<path d="M205.095 175.722C205.095 175.722 206.599 172.238 206.205 168.754C206.205 168.754 212.099 170.972 212.991 168.201C213.883 165.43 211.033 164.718 211.033 164.718C211.033 164.718 213.962 164.322 212.293 162.342C210.659 160.406 207.629 161.076 207.629 161.076C207.629 161.076 210.631 159.176 208.339 158.066C206.045 156.958 202.642 160.364 202.642 160.364C202.642 160.364 204.603 157.197 202.317 156.642C200.029 156.088 197.258 161.985 197.258 161.985C197.258 161.985 191.223 162.58 191.074 164.718C190.925 166.854 193.055 166.854 193.055 166.854C193.055 166.854 189.103 167.489 189.737 169.546C190.371 171.605 192.113 170.393 192.113 170.393C192.113 170.393 189.581 172.592 190.45 174.613C191.074 176.064 192.191 175.324 192.191 175.324C192.191 175.324 191.479 178.192 192.666 179.569C193.854 180.946 194.322 178.493 194.322 178.493C194.322 178.493 194.358 181.481 196.402 182.877C196.402 182.877 198.287 181.025 202.087 182.292L205.095 175.722Z" fill="#1D2A30"/>
<path d="M205.489 174.468C206.441 175.329 207.01 176.533 207.07 177.814C207.138 179.514 205.517 179.988 204.114 179.201C202.844 178.489 201.293 176.748 201.893 175.189C202.492 173.629 204.314 173.429 205.489 174.468Z" fill="#F8A461"/>
<path d="M67.7087 309.051H120.78L117.491 346.642H64.4201L67.7087 309.051ZM121.112 305.251H68.0415L71.33 267.66H124.401L121.112 305.251ZM124.734 263.86H71.6624L74.9515 226.268H128.022L124.734 263.86ZM128.355 222.468H75.2837L78.5723 184.877H131.644L128.355 222.468ZM131.976 181.077H78.9051L82.1936 143.486H135.265L131.976 181.077ZM135.597 139.686H82.5264L85.8155 102.094H138.886L135.597 139.686ZM140.233 86.713L139.219 98.2944H86.1472L87.1614 86.713H83.3608L59.2744 362.023H63.0744L64.0873 350.442H117.159L116.146 362.023H119.946L144.033 86.713H140.233Z" fill="#1D2A30"/>
<path d="M119.946 362.023H116.146L117.159 350.442H64.0873L63.0744 362.023H59.2744L83.3608 86.713H87.1614L86.1472 98.2944H90.6911C90.5655 99.585 90.428 100.852 90.28 102.094H85.8155L82.5264 139.686H84.5223C84.4671 140.869 84.4296 142.133 84.4155 143.486H82.1936L78.9051 181.077H86.3868C86.3739 182.44 86.3311 183.721 86.251 184.877H78.5723L75.2837 222.468H77.7097C77.5608 223.673 77.4165 224.938 77.2769 226.268H74.9515L71.7556 262.793L71.7264 263.127L71.6624 263.86H124.734L128.022 226.268H113.026C113.227 225.016 113.43 223.748 113.632 222.468H128.355L131.644 184.877H118.209C118.247 183.68 118.279 182.406 118.306 181.077H131.976L135.265 143.486H118.151C118.128 142.154 118.105 140.885 118.081 139.686H135.597L138.886 102.094H122.464C122.553 100.776 122.628 99.5024 122.685 98.2944H139.219L139.95 89.9424L143.749 89.949L128.627 262.793L128.598 263.127L123.396 322.592L123.367 322.925L122.405 333.911L122.376 334.245L119.946 362.023ZM64.4201 346.642H117.491L120.78 309.051H67.7087L66.5239 322.592L66.4947 322.925L64.4201 346.642ZM68.0415 305.251H121.112L124.401 267.66H71.33L68.0415 305.251ZM98.7931 226.268H91.2441C91.5853 225.017 91.93 223.749 92.2764 222.468H99.028C98.9358 223.678 98.8567 224.942 98.7931 226.268ZM102.359 184.877H100.95C101.106 183.665 101.261 182.39 101.414 181.077H101.586C101.876 182.381 102.139 183.646 102.359 184.877Z" fill="#5D6C72"/>
<path d="M102.406 85.06L111.001 90.072L125.922 83.4907L126.095 79.8373C126.138 78.9173 126.895 78.1933 127.817 78.1907L129.279 78.1867L130.83 76.7693C131.615 76.052 132.856 76.2067 133.44 77.096L134.325 78.4413C134.545 78.7747 134.643 79.1747 134.6 79.572L134.135 84C134.067 84.656 133.629 85.2147 133.01 85.4427L128.987 86.9173C128.987 86.9173 116.601 95.7333 112.063 96.744C107.525 97.7533 98.5488 93.004 98.5488 93.004L102.406 85.06Z" fill="#F46E75"/>
<path d="M214.941 12.344L146.266 12.6706C142.572 12.664 138.705 15.164 138.376 18.8653L133.621 87.5426L205.582 90.084L208.028 88.2573L214.941 12.344Z" fill="#4870C0"/>
<path d="M205.582 90.0449L211.363 25.0342L140.079 24.9249L134.298 89.9356L205.582 90.0449Z" fill="#4870C0"/>
<path d="M205.582 90.0449L143.749 89.9503L139.95 89.9436L136.731 89.9382L141.361 37.8916C141.578 35.4423 143.734 33.4609 146.178 33.4609C146.181 33.4609 146.183 33.4609 146.185 33.4609L210.605 33.5596L205.582 90.0449ZM156.889 62.1662C156.889 63.5502 157.953 64.6383 159.367 64.6409L207.834 64.7156L208.795 53.9076L160.329 53.8329C160.327 53.8329 160.325 53.8329 160.323 53.8329C158.83 53.8329 157.511 55.0449 157.378 56.5423L156.901 61.9236C156.893 62.0049 156.889 62.0862 156.889 62.1662Z" fill="#DBE8F7"/>
<path d="M207.081 73.192L158.613 73.1174C157.118 73.1147 155.797 74.328 155.663 75.8267L155.185 81.208C155.053 82.7053 156.157 83.9227 157.651 83.924L206.119 84L207.081 73.192Z" fill="#4870C0"/>
<path d="M208.795 53.9068L160.329 53.8322C158.833 53.8295 157.513 55.0428 157.378 56.5415L156.901 61.9229C156.767 63.4202 157.871 64.6375 159.367 64.6402L207.834 64.7148L208.795 53.9068Z" fill="#4870C0"/>
<path d="M207.834 64.7148L159.367 64.6402C157.953 64.6375 156.889 63.5495 156.889 62.1655C156.889 62.0855 156.893 62.0042 156.901 61.9229L157.378 56.5415C157.511 55.0442 158.83 53.8322 160.323 53.8322C160.325 53.8322 160.327 53.8322 160.329 53.8322L208.795 53.9068L207.834 64.7148Z" fill="#A1BCE6"/>
<path d="M141.36 37.8915C141.578 35.4408 143.738 33.4568 146.184 33.4608L210.604 33.5595L212.279 14.7314L143.791 14.6261C140.096 14.6195 136.835 17.6155 136.506 21.3168L130.404 89.9288L136.731 89.9395L141.36 37.8915Z" fill="#4870C0"/>
<path d="M136.731 89.9381L141.361 37.8915L136.731 89.9395" fill="#E6F0FA"/>
<path d="M136.731 89.9395L130.404 89.9288L136.506 21.3168C136.835 17.6195 140.09 14.6261 143.78 14.6261C143.784 14.6261 143.788 14.6261 143.791 14.6261L212.279 14.7314L210.604 33.5595L146.184 33.4608C146.183 33.4608 146.18 33.4608 146.178 33.4608C143.734 33.4608 141.578 35.4421 141.36 37.8915L136.731 89.9395ZM176.434 24.1035C176.434 26.3261 178.142 28.0715 180.412 28.0755C180.414 28.0755 180.416 28.0755 180.418 28.0755C182.816 28.0755 184.934 26.1301 185.148 23.7261C185.159 23.5941 185.166 23.4648 185.166 23.3355C185.166 21.1128 183.458 19.3675 181.187 19.3635C181.184 19.3635 181.183 19.3635 181.18 19.3635C178.783 19.3635 176.664 21.3088 176.452 23.7128C176.44 23.8448 176.434 23.9741 176.434 24.1035ZM144.131 24.0528C144.131 26.2768 145.839 28.0221 148.11 28.0261C148.112 28.0261 148.114 28.0261 148.116 28.0261C150.515 28.0261 152.631 26.0795 152.846 23.6768C152.856 23.5448 152.863 23.4155 152.863 23.2861C152.863 21.0635 151.155 19.3181 148.884 19.3141C148.882 19.3141 148.879 19.3141 148.876 19.3141C146.479 19.3141 144.363 21.2595 144.15 23.6635C144.138 23.7941 144.131 23.9248 144.131 24.0528Z" fill="#799BD7"/>
<path d="M185.149 23.7249C184.934 26.1302 182.814 28.0782 180.413 28.0742C178.012 28.0702 176.238 26.1169 176.453 23.7115C176.666 21.3062 178.786 19.3596 181.188 19.3622C183.589 19.3662 185.362 21.3196 185.149 23.7249Z" fill="#4870C0"/>
<path d="M180.419 28.0742C180.417 28.0742 180.415 28.0742 180.413 28.0742C178.143 28.0702 176.435 26.3249 176.435 24.1022C176.435 23.9729 176.441 23.8436 176.453 23.7116C176.665 21.3076 178.784 19.3622 181.181 19.3622C181.184 19.3622 181.185 19.3622 181.188 19.3622C183.459 19.3662 185.167 21.1115 185.167 23.3342C185.167 23.4635 185.16 23.5929 185.149 23.7249C184.935 26.1289 182.817 28.0742 180.419 28.0742Z" fill="#A1BCE6"/>
<path d="M168.997 23.7014C168.783 26.1081 166.662 28.0548 164.261 28.0508C161.859 28.0481 160.087 26.0948 160.301 23.6881C160.514 21.2828 162.634 19.3348 165.037 19.3388C167.437 19.3428 169.21 21.2961 168.997 23.7014Z" fill="#4870C0"/>
<path d="M152.846 23.676C152.632 26.0814 150.512 28.0294 148.11 28.0254C145.709 28.0214 143.936 26.0681 144.15 23.6627C144.364 21.2561 146.484 19.3094 148.885 19.3134C151.286 19.3174 153.06 21.2707 152.846 23.676Z" fill="#4870C0"/>
<path d="M148.117 28.0254C148.115 28.0254 148.113 28.0254 148.11 28.0254C145.84 28.0214 144.132 26.2761 144.132 24.0521C144.132 23.9241 144.139 23.7934 144.151 23.6627C144.364 21.2587 146.48 19.3134 148.877 19.3134C148.88 19.3134 148.883 19.3134 148.885 19.3134C151.156 19.3174 152.864 21.0627 152.864 23.2854C152.864 23.4147 152.857 23.544 152.847 23.676C152.632 26.0787 150.516 28.0254 148.117 28.0254Z" fill="#395EB4"/>
<path d="M150.731 25.0488C150.271 24.5862 149.812 24.1235 149.354 23.6622C149.815 23.2022 150.278 22.7448 150.74 22.2848C151.304 21.7248 150.435 20.8475 149.87 21.4088C149.407 21.8675 148.946 22.3262 148.483 22.7848C148.024 22.3235 147.566 21.8608 147.107 21.3995C146.546 20.8341 145.67 21.7048 146.231 22.2688C146.69 22.7315 147.148 23.1942 147.607 23.6555C147.144 24.1142 146.683 24.5728 146.22 25.0315C145.655 25.5928 146.526 26.4702 147.091 25.9088C147.552 25.4488 148.015 24.9915 148.478 24.5315C148.936 24.9941 149.395 25.4568 149.854 25.9182C150.415 26.4835 151.291 25.6128 150.731 25.0488Z" fill="white"/>
<path d="M167.225 23.0941C165.51 23.0874 163.797 23.0821 162.082 23.0767C161.287 23.0727 161.282 24.3074 162.078 24.3114C163.791 24.3167 165.506 24.3234 167.221 24.3301C168.015 24.3327 168.021 23.0967 167.225 23.0941Z" fill="white"/>
<path d="M178.615 25.8969L181.259 25.9062L178.625 23.2516L178.615 25.8969Z" fill="white"/>
<path d="M180.377 21.5114L183.013 24.166L183.022 21.5207L180.377 21.5114Z" fill="white"/>
<path d="M77.1135 243.791L76.1025 255.723L82.7677 256.445L84.7948 245.15L77.1135 243.791Z" fill="#F46E75"/>
<path d="M84.4991 256.303C85.7642 256.643 87.5111 256.878 87.8945 256.472C87.9491 256.423 88.006 256.331 87.9128 256.109C87.8633 255.979 87.7565 255.878 87.6232 255.833L87.3158 255.751C86.3502 255.756 85.395 255.943 84.4991 256.303ZM83.9372 256.449L83.8242 256.296L83.9267 256.137C84.0423 256.091 86.6491 255.051 87.7595 255.53C87.9674 255.615 88.1325 255.779 88.2221 255.985C88.3476 256.219 88.3128 256.504 88.1346 256.7C87.7976 257.03 86.8866 257.061 86.0267 256.943C85.3169 256.839 84.6185 256.673 83.9372 256.449Z" fill="#4870C0"/>
<path d="M86.0478 253.888C85.8411 253.855 85.6291 253.9 85.4524 254.013C84.853 254.538 84.4286 255.232 84.2363 256.005C85.165 255.619 86.4196 254.598 86.4431 254.122C86.4368 254.079 86.4338 253.957 86.1426 253.891L86.0478 253.888ZM83.852 256.428L83.7988 256.271C83.8207 256.184 84.2671 254.344 85.2499 253.743C85.5327 253.565 85.8764 253.509 86.201 253.592C86.6463 253.7 86.7546 253.948 86.7458 254.138C86.7843 254.938 84.9114 256.204 84.0327 256.453L83.963 256.451L83.852 256.428Z" fill="#4870C0"/>
<path d="M83.3674 255.381L75.8147 254.322C75.5303 254.281 75.2564 254.444 75.1548 254.713L72.9283 260.665C72.7262 261.192 72.9903 261.781 73.5168 261.984L73.7256 262.039C76.4548 262.373 78.8966 262.563 82.2851 263.044C86.2851 263.606 85.2027 263.942 89.896 264.668C92.7242 265.104 93.6939 261.956 92.5147 261.629C87.1136 260.165 86.7756 258.425 84.9308 256.16C84.5226 255.718 83.9658 255.441 83.3674 255.381Z" fill="#1D2A30"/>
<path d="M76.5855 250.023H76.585L76.7188 248.445H76.7192L76.5855 250.023Z" fill="#D6D8D8"/>
<path d="M83.7306 251.08L76.5859 250.023L76.7197 248.444L84.0166 249.487L83.7306 251.08Z" fill="#EF6063"/>
<path d="M114.993 55.088C114.993 55.088 120.386 52.5546 119.866 54.6933C119.347 56.8306 115.4 57.78 114.286 56.9893C113.171 56.1973 114.993 55.088 114.993 55.088Z" fill="#1D2A30"/>
<path d="M101.068 80.2582C101.068 80.2582 105.092 79.8449 105.028 72.4395C105.028 72.4395 108.745 70.7409 111.153 72.9289C113.561 75.1169 108.981 80.2289 111.972 82.3782C111.972 82.3782 109.346 84.1462 101.068 80.2582Z" fill="#F46E75"/>
<path d="M118.689 62.0478C118.726 61.5518 119.019 61.1692 119.343 61.1932C119.668 61.2172 119.9 61.6385 119.863 62.1345C119.825 62.6305 119.533 63.0132 119.209 62.9892C118.885 62.9652 118.652 62.5425 118.689 62.0478Z" fill="#1D2A30"/>
<path d="M119.028 62.9459L121.645 66.4032C121.645 66.4032 120.509 67.3939 118.767 66.9246L119.028 62.9459Z" fill="#F03C51"/>
<path d="M101.551 61.272C101.853 67.544 101.845 70.2093 104.967 73.468C109.76 76.8067 117.311 76.632 118.889 70.3907C120.31 64.7774 119.58 55.4867 113.474 52.876C109.121 51.016 104.084 53.0387 102.225 57.392C101.702 58.616 101.472 59.944 101.551 61.272Z" fill="#F46E75"/>
<path d="M117.76 60.5801L118.031 60.5228C118.574 60.0188 119.328 59.8068 120.054 59.9574C120.207 59.9988 120.364 59.9094 120.409 59.7574C120.451 59.6028 120.363 59.4441 120.21 59.3961C119.296 59.1934 118.341 59.4481 117.648 60.0774C117.524 60.1734 117.502 60.3521 117.597 60.4747L117.606 60.4868L117.76 60.5801Z" fill="#1D2A30"/>
<path d="M111.403 77.4453C111.403 77.444 111.403 77.444 111.402 77.444C111.437 77.3106 111.472 77.1786 111.505 77.0466C111.472 77.1786 111.438 77.312 111.403 77.4453Z" fill="#CECDCC"/>
<path d="M111.402 77.4453C110.712 76.8666 109.824 76.3413 108.686 76.0267C108.322 75.608 108.067 75.2293 107.904 74.9627C109.147 75.396 110.447 75.628 111.704 75.628C111.737 75.628 111.771 75.628 111.805 75.628C111.738 76.0867 111.627 76.564 111.505 77.048C111.472 77.18 111.437 77.312 111.402 77.4453Z" fill="#E75656"/>
<path d="M111.704 75.627C110.447 75.627 109.147 75.395 107.904 74.9616C109.145 75.3936 110.44 75.6163 111.694 75.6163C111.731 75.6163 111.769 75.6163 111.806 75.6149C111.806 75.6189 111.805 75.623 111.805 75.627C111.771 75.627 111.737 75.627 111.704 75.627Z" fill="#E75656"/>
<path d="M104.937 74.4154C104.937 74.4154 105.375 73.8888 107.136 74.6621C107.136 74.6621 111.243 70.0528 111.972 66.7261C111.972 66.7261 114.134 65.5141 114.286 62.7554C114.439 59.9981 114.517 58.1768 115.626 57.5434C116.734 56.9101 119.766 54.1394 117.537 51.2888C115.309 48.4394 115.468 51.7647 115.468 51.7647C115.468 51.7647 108.913 44.2434 109.855 49.2314C109.855 49.2314 102.431 47.5234 106.204 51.6061C106.204 51.6061 97.8135 53.7434 100.584 61.6608C100.584 61.6608 97.6812 69.3661 104.937 74.4154Z" fill="#1D2A30"/>
<path d="M112.702 63.4012C113.654 64.2625 114.223 65.4665 114.284 66.7479C114.352 68.4479 112.73 68.9212 111.328 68.1345C110.057 67.4225 108.506 65.6825 109.105 64.1225C109.704 62.5625 111.528 62.3612 112.702 63.4012Z" fill="#F46E75"/>
<path d="M107.79 78.3326C109.217 78.4593 111.111 78.754 113.07 79.3887C112.316 78.1887 110.735 76.2113 107.553 75.798C103.885 75.3233 102.434 77.1247 101.653 78.442C103.463 78.1807 105.498 78.126 107.79 78.3326Z" fill="#4870C0"/>
<path d="M113.069 79.3887C113.047 79.382 113.025 79.374 113.002 79.3673C113 79.366 112.997 79.366 112.995 79.3646C112.991 79.3633 112.987 79.362 112.982 79.3607C112.977 79.3593 112.973 79.358 112.968 79.3567C112.967 79.3553 112.966 79.3553 112.965 79.3553C112.32 79.15 111.682 78.982 111.067 78.8433C109.85 78.57 108.72 78.4153 107.789 78.3326C107.728 78.326 107.668 78.322 107.607 78.3167C106.693 78.2393 105.819 78.2007 104.982 78.2007C103.798 78.2007 102.692 78.2767 101.663 78.4233C102.358 77.2567 103.581 75.7207 106.402 75.7207C106.759 75.7207 107.142 75.7446 107.552 75.798C110.735 76.2113 112.315 78.1887 113.069 79.3887Z" fill="#A1BCE6"/>
<path d="M86.7316 125.672C86.7316 125.672 83.3009 133.537 84.7785 154.859C84.7785 154.859 87.5425 180.048 85.8348 188.215C82.7613 202.911 77.6009 205.525 75.8066 247.432L84.99 248.697C84.99 248.697 97.105 206.324 99.8733 192.015C101.591 183.136 103.885 156.231 103.885 156.231L104.734 127.731L86.7316 125.672Z" fill="#1D2A30"/>
<path d="M100.195 246.024L100.213 258L106.917 258.146L107.965 246.719L100.195 246.024Z" fill="#F46E75"/>
<path d="M108.629 257.261C109.919 257.491 111.678 257.573 112.027 257.137C112.076 257.082 112.125 256.986 112.013 256.774C111.952 256.647 111.837 256.555 111.701 256.524L111.387 256.467C110.426 256.555 109.49 256.824 108.629 257.261ZM108.082 257.452L107.956 257.311L108.045 257.143C108.156 257.087 110.663 255.827 111.811 256.21C112.025 256.278 112.204 256.426 112.311 256.623C112.456 256.844 112.446 257.133 112.285 257.343C111.978 257.7 111.073 257.811 110.206 257.766C109.49 257.723 108.78 257.618 108.082 257.452Z" fill="#4870C0"/>
<path d="M109.964 254.719C109.755 254.704 109.548 254.768 109.382 254.895C108.83 255.468 108.467 256.198 108.342 256.986C109.233 256.519 110.396 255.395 110.379 254.919C110.368 254.876 110.355 254.756 110.059 254.715L109.964 254.719ZM107.995 257.439L107.929 257.285C107.942 257.199 108.229 255.327 109.157 254.644C109.424 254.443 109.761 254.357 110.092 254.411C110.544 254.48 110.675 254.719 110.681 254.909C110.788 255.702 109.031 257.124 108.177 257.449L108.108 257.451L107.995 257.439Z" fill="#4870C0"/>
<path d="M107.421 256.439L99.8062 256.032C99.5192 256.016 99.2598 256.203 99.1828 256.478L97.4754 262.601C97.3197 263.143 97.6338 263.708 98.1754 263.863L98.3885 263.9C101.136 263.999 103.585 263.978 107.002 264.165C111.035 264.383 109.986 264.811 114.725 265.131C117.579 265.321 118.275 262.101 117.073 261.877C111.566 260.884 111.079 259.178 109.046 257.08C108.602 256.673 108.023 256.445 107.421 256.439Z" fill="#1D2A30"/>
<path d="M107.387 253.016L100.205 252.897L100.202 251.077L107.565 251.066L107.387 253.016Z" fill="#EF6063"/>
<path d="M100.5 188.197C95.136 172.217 96.7064 152.115 96.7064 152.115C96.9162 163.24 99.6684 172.607 101.473 180.575C101.152 183.349 100.822 185.973 100.5 188.197Z" fill="#16191B"/>
<path d="M97.9726 127.732C97.9726 127.732 96.3893 135.333 96.7059 152.114C97.0226 168.898 103.124 181.677 103.032 191.698C102.899 206.296 96.6642 214.182 99.2387 249.965H109.056C109.056 249.965 116.827 205.634 117.923 190.749C119.055 175.349 117.845 129 117.845 129L97.9726 127.732Z" fill="#1D2A30"/>
<path d="M98.6828 79.1166C98.6828 79.1166 91.5599 79.6779 89.9765 84.5859C88.3937 89.4939 91.1197 92.9899 91.1197 92.9899L94.9645 94.0859L98.6828 79.1166Z" fill="#4870C0"/>
<path d="M91.1204 92.9902H91.1199C91.1199 92.9902 89.4808 90.8889 89.4824 87.6556C89.4835 86.7196 89.6215 85.6889 89.9767 84.5862C91.5423 79.7329 98.5236 79.1302 98.6803 79.1169C93.9428 80.7102 91.5111 84.2862 91.3231 89.0982C91.272 90.4089 91.2038 91.7062 91.1204 92.9902Z" fill="#4168BB"/>
<path d="M107.789 78.333C112.363 78.7423 121.723 80.865 122.673 90.365C123.623 99.865 119.19 133.433 119.19 133.433C119.19 133.433 101.456 134.065 84.9893 129.316C84.9893 129.316 90.4778 110.737 91.3226 89.0983C91.607 81.821 97.0242 77.3677 107.789 78.333Z" fill="#4870C0"/>
<path d="M122.312 104.221C117.093 98.206 113.921 88.7834 113.921 88.7834L122.78 92.15C122.878 95.1607 122.67 99.4834 122.312 104.221Z" fill="#4168BB"/>
<path d="M127.951 90.279L135.55 96.6977L151.383 92.7924L152.184 89.2244C152.387 88.3257 153.258 87.743 154.164 87.899L155.606 88.1484L157.379 87.0204C158.276 86.4484 159.471 86.815 159.894 87.7924L160.534 89.2697C160.691 89.6363 160.718 90.047 160.608 90.431L159.386 94.7124C159.204 95.3457 158.678 95.8217 158.03 95.939L153.811 96.6977C153.811 96.6977 140.09 103.243 135.444 103.454C130.8 103.666 122.779 97.4377 122.779 97.4377L127.951 90.279Z" fill="#F46E75"/>
<path d="M115.033 80.1447C115.033 80.1447 122.594 82.0527 131.461 90.4447C131.461 90.4447 129.52 97.0834 122.376 100.414C122.376 100.414 106.838 84.4114 115.033 80.1447Z" fill="#4870C0"/>
<path d="M75.4363 244.844L75.1729 248.223L85.1478 249.648L86.1046 246.642L75.4363 244.844Z" fill="#1D2A30"/>
<path d="M85.1478 249.648L84.016 249.487L76.7191 248.444L75.1729 248.223L75.4363 244.844L86.1046 246.642L85.1478 249.648Z" fill="#5D6C72"/>
<path d="M98.7432 247.706L99.0708 251.078L109.214 251.064L109.795 247.766L98.7432 247.706Z" fill="#1D2A30"/>
<path d="M99.0708 251.078L98.7432 247.706L109.795 247.766L109.214 251.064L107.566 251.066L100.202 251.077L99.0708 251.078Z" fill="#5D6C72"/>
</svg>
